<svg width="32" height="32" viewBox="0 0 32 32" fill="none" xmlns="http://www.w3.org/2000/svg">
<path d="M12.8381 17.8813C12.4632 17.5064 11.8554 17.5064 11.4805 17.8813C11.1056 18.2562 11.1056 18.864 11.4805 19.2389L12.8381 17.8813ZM14.7193 21.1201L14.0405 21.7989C14.4154 22.1738 15.0232 22.1738 15.3981 21.7989L14.7193 21.1201ZM20.5181 16.6789C20.893 16.304 20.893 15.6962 20.5181 15.3213C20.1432 14.9464 19.5354 14.9464 19.1605 15.3213L20.5181 16.6789ZM6.10418 12.3372C5.98429 12.8537 6.30579 13.3696 6.82225 13.4895C7.33871 13.6093 7.85458 13.2878 7.97446 12.7714L6.10418 12.3372ZM8.31932 7.04008V6.08008C7.87275 6.08008 7.48516 6.38801 7.38418 6.823L8.31932 7.04008ZM15.9993 8.00008C16.5295 8.00008 16.9593 7.57027 16.9593 7.04008C16.9593 6.50989 16.5295 6.08008 15.9993 6.08008V8.00008ZM7.99932 12.5543C7.99932 12.0241 7.56951 11.5943 7.03932 11.5943C6.50913 11.5943 6.07932 12.0241 6.07932 12.5543H7.99932ZM7.03932 24.9601H6.07932C6.07932 25.4903 6.50913 25.9201 7.03932 25.9201V24.9601ZM24.9593 24.9601V25.9201C25.4895 25.9201 25.9193 25.4903 25.9193 24.9601H24.9593ZM25.9193 12.5543C25.9193 12.0241 25.4895 11.5943 24.9593 11.5943C24.4291 11.5943 23.9993 12.0241 23.9993 12.5543H25.9193ZM7.03932 11.5943C6.50913 11.5943 6.07932 12.0241 6.07932 12.5543C6.07932 13.0845 6.50913 13.5143 7.03932 13.5143V11.5943ZM15.9993 13.5143C16.5295 13.5143 16.9593 13.0845 16.9593 12.5543C16.9593 12.0241 16.5295 11.5943 15.9993 11.5943V13.5143ZM15.0393 12.5543C15.0393 13.0845 15.4691 13.5143 15.9993 13.5143C16.5295 13.5143 16.9593 13.0845 16.9593 12.5543H15.0393ZM16.9593 7.04008C16.9593 6.50989 16.5295 6.08008 15.9993 6.08008C15.4691 6.08008 15.0393 6.50989 15.0393 7.04008H16.9593ZM15.9993 11.5943C15.4691 11.5943 15.0393 12.0241 15.0393 12.5543C15.0393 13.0845 15.4691 13.5143 15.9993 13.5143V11.5943ZM24.9593 13.5143C25.4895 13.5143 25.9193 13.0845 25.9193 12.5543C25.9193 12.0241 25.4895 11.5943 24.9593 11.5943V13.5143ZM16.9593 12.5543C16.9593 12.0241 16.5295 11.5943 15.9993 11.5943C15.4691 11.5943 15.0393 12.0241 15.0393 12.5543H16.9593ZM15.0393 14.7201C15.0393 15.2503 15.4691 15.6801 15.9993 15.6801C16.5295 15.6801 16.9593 15.2503 16.9593 14.7201H15.0393ZM15.9993 6.08008C15.4691 6.08008 15.0393 6.50989 15.0393 7.04008C15.0393 7.57027 15.4691 8.00008 15.9993 8.00008V6.08008ZM23.6793 7.04008L24.6145 6.823C24.5135 6.38801 24.1259 6.08008 23.6793 6.08008V7.04008ZM24.0242 12.7714C24.1441 13.2878 24.6599 13.6093 25.1764 13.4895C25.6929 13.3696 26.0143 12.8537 25.8945 12.3372L24.0242 12.7714ZM11.4805 19.2389L14.0405 21.7989L15.3981 20.4413L12.8381 17.8813L11.4805 19.2389ZM15.3981 21.7989L20.5181 16.6789L19.1605 15.3213L14.0405 20.4413L15.3981 21.7989ZM7.97446 12.7714L9.25446 7.25715L7.38418 6.823L6.10418 12.3372L7.97446 12.7714ZM8.31932 8.00008H15.9993V6.08008H8.31932V8.00008ZM6.07932 12.5543V24.9601H7.99932V12.5543H6.07932ZM7.03932 25.9201H24.9593V24.0001H7.03932V25.9201ZM25.9193 24.9601V12.5543H23.9993V24.9601H25.9193ZM7.03932 13.5143H15.9993V11.5943H7.03932V13.5143ZM16.9593 12.5543V7.04008H15.0393V12.5543H16.9593ZM15.9993 13.5143H24.9593V11.5943H15.9993V13.5143ZM15.0393 12.5543V14.7201H16.9593V12.5543H15.0393ZM15.9993 8.00008H23.6793V6.08008H15.9993V8.00008ZM22.7442 7.25715L24.0242 12.7714L25.8945 12.3372L24.6145 6.823L22.7442 7.25715Z" fill="#F18723"/>
</svg>
