<svg width="32" height="32" viewBox="0 0 32 32" fill="none" xmlns="http://www.w3.org/2000/svg">
<g clip-path="url(#clip0_2_1624)">
<path d="M28.8795 4.48043H26.2708C25.9529 4.48109 25.6484 4.60781 25.4239 4.83278C25.1994 5.05776 25.0733 5.3626 25.0733 5.68043V11.7823H20.4426C20.2764 11.6723 20.1052 11.5679 19.9308 11.4698V5.68043C19.9308 5.3626 19.8047 5.05776 19.5802 4.83278C19.3557 4.60781 19.0511 4.48109 18.7333 4.48043H16.1245C15.8067 4.48109 15.5021 4.60781 15.2776 4.83278C15.0531 5.05776 14.927 5.3626 14.927 5.68043V10.5198C14.3528 10.5965 13.7885 10.7348 13.2439 10.9323C13.1546 10.1871 12.8729 9.47804 12.4264 8.8748L9.7389 5.2273V3.8523H10.5901C10.6476 3.8523 10.7045 3.84099 10.7576 3.819C10.8107 3.79702 10.8589 3.76479 10.8995 3.72416C10.9401 3.68354 10.9724 3.63531 10.9943 3.58223C11.0163 3.52915 11.0276 3.47226 11.0276 3.4148V1.7273C11.0275 1.40678 10.9001 1.09942 10.6734 0.872772C10.4468 0.646124 10.1394 0.51872 9.8189 0.518555H5.58203C5.26182 0.519051 4.95488 0.646514 4.72852 0.872992C4.50216 1.09947 4.37486 1.40647 4.37453 1.72668V3.41418C4.37453 3.53021 4.42062 3.64149 4.50267 3.72354C4.58471 3.80559 4.69599 3.85168 4.81203 3.85168H5.58515V5.35668L2.94203 8.85668C2.37261 9.61357 2.06365 10.5345 2.0614 11.4817V28.9329C2.06223 29.5937 2.3251 30.2272 2.79235 30.6945C3.25961 31.1617 3.8931 31.4246 4.5539 31.4254H10.7845C11.4453 31.4246 12.0788 31.1617 12.5461 30.6945C13.0133 30.2272 13.2762 29.5937 13.277 28.9329V26.1542C13.8113 26.346 14.3644 26.4805 14.927 26.5554V29.4061C14.9269 29.9406 15.1387 30.4534 15.5161 30.8319C15.8935 31.2105 16.4056 31.4239 16.9401 31.4254H28.062C28.5965 31.4239 29.1086 31.2105 29.4859 30.8319C29.8632 30.4533 30.0749 29.9405 30.0745 29.4061V5.68043C30.0747 5.36298 29.949 5.05842 29.725 4.83348C29.501 4.60855 29.197 4.48159 28.8795 4.48043ZM25.067 12.6573C25.0398 12.8974 24.9253 13.1192 24.7453 13.2805C24.5654 13.4418 24.3324 13.5314 24.0908 13.5323H22.347C22.1022 13.2216 21.835 12.9291 21.5476 12.6573H25.067ZM23.2145 18.5379C23.2145 19.9646 22.7915 21.3593 21.9989 22.5455C21.2063 23.7318 20.0797 24.6564 18.7616 25.2024C17.4436 25.7485 15.9932 25.8914 14.5939 25.6132C13.1946 25.3349 11.9092 24.648 10.9003 23.6393C9.89142 22.6305 9.20427 21.3453 8.92579 19.946C8.6473 18.5468 8.78998 17.0964 9.33578 15.7782C9.88158 14.4601 10.806 13.3333 11.9921 12.5405C13.1783 11.7477 14.5728 11.3244 15.9995 11.3242C17.9121 11.3263 19.7457 12.087 21.098 13.4394C22.4504 14.7918 23.2111 16.6254 23.2133 18.5379H23.2145ZM15.8033 6.91293H17.6783C17.7943 6.91293 17.9056 6.86684 17.9876 6.78479C18.0697 6.70274 18.1158 6.59146 18.1158 6.47543C18.1158 6.3594 18.0697 6.24812 17.9876 6.16607C17.9056 6.08402 17.7943 6.03793 17.6783 6.03793H15.8033V5.68043C15.8031 5.59462 15.837 5.51223 15.8974 5.45132C15.9578 5.39041 16.04 5.35593 16.1258 5.35543H18.7345C18.8203 5.35593 18.9025 5.39041 18.9629 5.45132C19.0233 5.51223 19.0572 5.59462 19.057 5.68043V11.0492C18.0871 10.6518 17.0489 10.448 16.0008 10.4492C15.9345 10.4492 15.8689 10.4492 15.8033 10.4492V6.91293ZM5.24953 2.97793V1.72793C5.24953 1.63958 5.28462 1.55485 5.3471 1.49237C5.40957 1.4299 5.4943 1.3948 5.58265 1.3948H9.81953C9.90788 1.3948 9.99261 1.4299 10.0551 1.49237C10.1176 1.55485 10.1526 1.63958 10.1526 1.72793V2.97793H5.24953ZM8.8639 3.85293V4.69355H6.46015V3.85293H8.8639ZM12.4026 28.9329C12.4022 29.3618 12.2316 29.7729 11.9283 30.0761C11.6251 30.3794 11.214 30.5499 10.7852 30.5504H10.4683L11.0714 29.5417C11.1256 29.4425 11.1394 29.3262 11.1097 29.2171C11.0801 29.108 11.0094 29.0146 10.9124 28.9565C10.8154 28.8984 10.6997 28.8801 10.5896 28.9054C10.4794 28.9307 10.3833 28.9977 10.3214 29.0923L9.4464 30.5504H8.2214V29.3167C8.2214 29.2006 8.17531 29.0894 8.09326 29.0073C8.01121 28.9253 7.89993 28.8792 7.7839 28.8792C7.66787 28.8792 7.55659 28.9253 7.47454 29.0073C7.39249 29.0894 7.3464 29.2006 7.3464 29.3167V30.5504H6.12453L5.24953 29.0923C5.22126 29.0406 5.18286 28.9952 5.13661 28.9587C5.09036 28.9222 5.03722 28.8955 4.98038 28.88C4.92353 28.8646 4.86416 28.8608 4.80581 28.8688C4.74746 28.8769 4.69134 28.8966 4.64081 28.9269C4.59028 28.9572 4.54639 28.9974 4.51176 29.045C4.47713 29.0927 4.45248 29.1468 4.43929 29.2042C4.42609 29.2616 4.42463 29.3211 4.43498 29.3791C4.44533 29.4371 4.46729 29.4924 4.49953 29.5417L5.10265 30.5504H4.55265C4.12414 30.5494 3.71349 30.3786 3.41067 30.0755C3.10784 29.7723 2.93752 29.3614 2.93703 28.9329V21.8461H6.84703C6.96306 21.8461 7.07434 21.8 7.15638 21.7179C7.23843 21.6359 7.28453 21.5246 7.28453 21.4086C7.28453 21.2925 7.23843 21.1812 7.15638 21.0992C7.07434 21.0171 6.96306 20.9711 6.84703 20.9711H2.93703V17.6186H6.84703C6.96306 17.6186 7.07434 17.5725 7.15638 17.4904C7.23843 17.4084 7.28453 17.2971 7.28453 17.1811C7.28453 17.065 7.23843 16.9537 7.15638 16.8717C7.07434 16.7896 6.96306 16.7436 6.84703 16.7436H2.93703V11.4848C2.9386 10.7272 3.1855 9.99041 3.64078 9.3848L6.52203 5.56855H8.9039L11.722 9.3923C12.1318 9.94566 12.3671 10.6088 12.3976 11.2967C11.0496 11.9667 9.91537 12.9998 9.12262 14.2795C8.32987 15.5592 7.9101 17.0348 7.91055 18.5402C7.91101 20.0456 8.33167 21.521 9.12519 22.8002C9.91871 24.0795 11.0536 25.1118 12.402 25.7811L12.4026 28.9329ZM28.062 30.5504H16.937C16.6474 30.5492 16.369 30.438 16.1584 30.2392C15.9477 30.0404 15.8206 29.7689 15.8027 29.4798H29.1977C29.1799 29.7692 29.0526 30.0409 28.8416 30.2398C28.6307 30.4386 28.3519 30.5497 28.062 30.5504ZM29.1995 28.6048H15.802V26.6248C15.8645 26.6248 15.9333 26.6248 15.9995 26.6248C17.428 26.6251 18.8311 26.247 20.066 25.529C21.3009 24.8109 22.3235 23.7785 23.0297 22.5368C23.736 21.2951 24.1007 19.8885 24.0867 18.4601C24.0727 17.0316 23.6806 15.6324 22.9501 14.4048H24.0895C24.5831 14.4035 25.0559 14.2065 25.4044 13.8569C25.7528 13.5074 25.9484 13.034 25.9483 12.5404V6.91543H27.8233C27.9393 6.91543 28.0506 6.86934 28.1326 6.78729C28.2147 6.70524 28.2608 6.59396 28.2608 6.47793C28.2608 6.3619 28.2147 6.25062 28.1326 6.16857C28.0506 6.08652 27.9393 6.04043 27.8233 6.04043H25.9483V5.68043C25.9481 5.59462 25.982 5.51223 26.0424 5.45132C26.1028 5.39041 26.185 5.35593 26.2708 5.35543H28.8795C28.9653 5.35593 29.0473 5.39043 29.1077 5.45136C29.168 5.51229 29.2017 5.59467 29.2014 5.68043L29.1995 28.6048Z" fill="#F18723"/>
<path d="M14.7446 14.3876V17.1551H13.4071C13.158 17.1549 12.9175 17.2465 12.7317 17.4125C12.5458 17.5784 12.4276 17.8069 12.3996 18.0545L12.2659 19.242L12.1815 19.992C12.1296 20.4539 11.9015 20.907 11.504 21.3401C11.3996 21.4535 11.3306 21.5948 11.3052 21.7468C11.2798 21.8988 11.2992 22.0549 11.361 22.1961C11.4228 22.3373 11.5244 22.4574 11.6534 22.5418C11.7823 22.6262 11.933 22.6712 12.0871 22.6714H18.7746C18.9296 22.6718 19.0829 22.6402 19.2251 22.5786C19.3672 22.517 19.4951 22.4266 19.6008 22.3133C19.7064 22.1999 19.7875 22.0659 19.8389 21.9198C19.8903 21.7736 19.911 21.6184 19.8996 21.4639L19.7396 19.2689L19.6546 18.0976C19.6347 17.843 19.5197 17.6052 19.3324 17.4315C19.1452 17.2578 18.8994 17.1609 18.644 17.1601H17.3252V14.3876C17.329 14.2158 17.2985 14.0449 17.2353 13.8851C17.1722 13.7252 17.0777 13.5796 16.9575 13.4567C16.8373 13.3338 16.6938 13.2362 16.5354 13.1696C16.377 13.1029 16.2068 13.0686 16.0349 13.0686C15.8631 13.0686 15.6929 13.1029 15.5345 13.1696C15.3761 13.2362 15.2325 13.3338 15.1123 13.4567C14.9921 13.5796 14.8977 13.7252 14.8346 13.8851C14.7714 14.0449 14.7408 14.2158 14.7446 14.3876ZM19.0859 21.5195C19.0891 21.5625 19.0835 21.6057 19.0693 21.6464C19.055 21.6871 19.0325 21.7244 19.0032 21.756C18.9738 21.7876 18.9383 21.8127 18.8987 21.8299C18.8592 21.8471 18.8165 21.8559 18.7734 21.8558H18.1915L18.114 20.9295C18.105 20.8218 18.0535 20.722 17.9709 20.6522C17.8884 20.5824 17.7814 20.5483 17.6737 20.5573C17.5659 20.5663 17.4662 20.6178 17.3964 20.7004C17.3266 20.783 17.2925 20.8899 17.3015 20.9976L17.3746 21.8558H16.2877V20.9639C16.2877 20.8561 16.2449 20.7528 16.1688 20.6766C16.0926 20.6004 15.9892 20.5576 15.8815 20.5576C15.7738 20.5576 15.6704 20.6004 15.5942 20.6766C15.518 20.7528 15.4752 20.8561 15.4752 20.9639V21.8558H14.3871L14.4596 21.0001C14.4687 20.8924 14.4345 20.7855 14.3647 20.7029C14.2949 20.6203 14.1952 20.5688 14.0874 20.5598C13.9797 20.5508 13.8728 20.5849 13.7902 20.6547C13.7076 20.7245 13.6562 20.8243 13.6471 20.932L13.5696 21.8583H12.1309C12.6309 21.3045 12.9184 20.7076 12.989 20.0826L13.0327 19.6951L18.9534 19.7033L19.0859 21.5195ZM18.6409 17.9676C18.6917 17.9678 18.7406 17.9873 18.7777 18.0221C18.8148 18.0568 18.8374 18.1044 18.8409 18.1551L18.8946 18.8895L13.1246 18.8808L13.2071 18.1458C13.2127 18.0966 13.2361 18.0513 13.273 18.0184C13.31 17.9856 13.3577 17.9675 13.4071 17.9676H18.6409ZM15.5571 14.3876C15.5548 14.3234 15.5654 14.2594 15.5884 14.1994C15.6114 14.1394 15.6462 14.0847 15.6908 14.0384C15.7354 13.9922 15.7889 13.9554 15.848 13.9303C15.9071 13.9052 15.9707 13.8922 16.0349 13.8922C16.0992 13.8922 16.1628 13.9052 16.2219 13.9303C16.281 13.9554 16.3345 13.9922 16.3791 14.0384C16.4237 14.0847 16.4585 14.1394 16.4815 14.1994C16.5044 14.2594 16.5151 14.3234 16.5127 14.3876V17.0208H15.5571V14.3876Z" fill="#F18723"/>
</g>
<defs>
<clipPath id="clip0_2_1624">
<rect width="32" height="32" fill="white"/>
</clipPath>
</defs>
</svg>
