<svg width="48" height="48" viewBox="0 0 48 48" fill="none" xmlns="http://www.w3.org/2000/svg">
<path fill-rule="evenodd" clip-rule="evenodd" d="M6 4C7.10457 4 8 4.89543 8 6V38C8 39.1046 8.89543 40 10 40H42C43.1046 40 44 40.8954 44 42C44 43.1046 43.1046 44 42 44H10C6.68629 44 4 41.3137 4 38V6C4 4.89543 4.89543 4 6 4Z" fill="#821727"/>
<path d="M34 13C32.8954 13 32 13.8954 32 15C32 16.1046 32.8954 17 34 17H37.1716L29 25.1716L23.8284 20C22.2663 18.4379 19.7337 18.4379 18.1716 20L12.5858 25.5858C11.8047 26.3668 11.8047 27.6332 12.5858 28.4142C13.3668 29.1953 14.6332 29.1953 15.4142 28.4142L21 22.8284L26.1716 28C27.7337 29.5621 30.2663 29.5621 31.8284 28L40 19.8284V23C40 24.1046 40.8954 25 42 25C43.1046 25 44 24.1046 44 23V15C44 13.8954 43.1046 13 42 13H34Z" fill="#821727"/>
</svg>
