<svg width="48" height="48" viewBox="0 0 48 48" fill="none" xmlns="http://www.w3.org/2000/svg">
<path fill-rule="evenodd" clip-rule="evenodd" d="M20.1084 5.31613C22.351 3.40504 25.6493 3.40504 27.8918 5.31612L28.0325 5.43598C28.9935 6.25492 30.1883 6.74984 31.4469 6.85028L31.6311 6.86497C34.5681 7.09935 36.9004 9.43162 37.1348 12.3687L37.1495 12.5529C37.2499 13.8115 37.7448 15.0063 38.5638 15.9673L38.6836 16.1079C40.5947 18.3505 40.5947 21.6488 38.6836 23.8913L38.5638 24.032C37.7448 24.993 37.2499 26.1878 37.1495 27.4464L37.1348 27.6306C36.9685 29.7148 35.7457 31.4945 34 32.4361V42.3116C34 43.6513 32.7085 44.6122 31.4253 44.2272L24 41.9996L16.5747 44.2272C15.2915 44.6122 14 43.6513 14 42.3116V32.4359C12.2545 31.4943 11.0318 29.7147 10.8655 27.6306L10.8508 27.4464C10.7503 26.1878 10.2554 24.993 9.43647 24.032L9.31661 23.8913C7.40553 21.6488 7.40553 18.3505 9.31661 16.1079L9.43646 15.9673C10.2554 15.0063 10.7503 13.8115 10.8508 12.5529L10.8655 12.3687C11.0998 9.43162 13.4321 7.09935 16.3692 6.86497L16.5534 6.85028C17.812 6.74984 19.0068 6.25492 19.9678 5.43598L20.1084 5.31613ZM25.2974 8.36058L25.438 8.48043C27.0396 9.84534 29.031 10.6702 31.1287 10.8376L31.3129 10.8523C32.2919 10.9304 33.0693 11.7078 33.1475 12.6869L33.1622 12.8711C33.3296 14.9687 34.1544 16.9601 35.5193 18.5618L35.6392 18.7024C36.2762 19.4499 36.2762 20.5494 35.6392 21.2969L35.5193 21.4375C34.1544 23.0391 33.3296 25.0305 33.1622 27.1282L33.1475 27.3124C33.0693 28.2914 32.2919 29.0688 31.3129 29.147L31.1287 29.1617C29.031 29.3291 27.0396 30.1539 25.438 31.5188L25.2974 31.6387C24.5498 32.2757 23.4504 32.2757 22.7029 31.6387L22.5623 31.5188C20.9606 30.1539 18.9692 29.3291 16.8715 29.1617L16.6874 29.147C15.7083 29.0688 14.9309 28.2914 14.8528 27.3124L14.8381 27.1282C14.6707 25.0306 13.8458 23.0392 12.4809 21.4375L12.3611 21.2969C11.724 20.5494 11.724 19.4499 12.3611 18.7024L12.4809 18.5618C13.8458 16.9601 14.6707 14.9687 14.8381 12.8711L14.8528 12.6869C14.9309 11.7078 15.7083 10.9304 16.6874 10.8523L16.8715 10.8376C18.9692 10.6702 20.9606 9.84534 22.5622 8.48044L22.7029 8.36058C23.4504 7.72356 24.5498 7.72356 25.2974 8.36058Z" fill="#F3963F"/>
<circle cx="24" cy="20" r="6" fill="#F3963F"/>
</svg>
