<svg width="32" height="32" viewBox="0 0 32 32" fill="none" xmlns="http://www.w3.org/2000/svg">
<path d="M29.9968 25.5876L22.1007 12.9761C21.4342 11.9105 21.0807 10.6803 21.0807 9.42375L21.0919 0.01025L10.9692 0L10.9589 9.40613C10.9574 10.6641 10.601 11.8973 9.93154 12.9628L2.00761 25.5583C1.58073 26.2373 1.36536 27.0125 1.36536 27.7878C1.36536 28.4829 1.53804 29.1811 1.88561 29.8116C2.62342 31.1475 4.02629 31.9765 5.55111 31.978L26.4409 32H26.4422C26.4989 32 26.5275 31.9971 26.5282 31.9971L26.5275 31.9941C28.0185 31.9647 29.3839 31.149 30.1099 29.8424V29.8409C30.4605 29.209 30.6346 28.5087 30.6346 27.8106C30.6346 27.0382 30.4208 26.2652 29.9968 25.5876ZM27.9722 28.6571C27.665 29.2119 27.0802 29.5573 26.446 29.5558C26.4394 29.5558 26.4379 29.5573 26.4335 29.5573L5.55336 29.5345C4.91842 29.5338 4.33198 29.1877 4.02636 28.6314C3.88004 28.3668 3.80879 28.0788 3.80879 27.7878C3.80879 27.4636 3.89773 27.1426 4.07629 26.8589L11.9988 14.2642C12.9144 12.8092 13.3994 11.1271 13.4023 9.40756L13.4097 2.44556L18.6455 2.45144L18.6375 9.41494V9.41788V9.42375C18.6375 11.1389 19.1203 12.818 20.03 14.2724L27.9253 26.8839C28.1024 27.1661 28.1913 27.488 28.192 27.8106C28.1912 28.1023 28.1192 28.3918 27.9722 28.6571Z" fill="#F18723"/>
<path d="M20.2276 18.206C20.138 18.0613 19.9793 17.9738 19.8095 17.9738L12.2126 17.9657C12.0421 17.9657 11.8833 18.0524 11.7936 18.1972L6.34396 26.8575C6.24846 27.0103 6.24258 27.2029 6.33002 27.3609C6.41671 27.5189 6.58277 27.6159 6.76284 27.6159L25.2378 27.6358C25.4178 27.6364 25.5831 27.5394 25.6713 27.3815C25.758 27.2235 25.7529 27.0317 25.6567 26.8796L20.2276 18.206Z" fill="#F18723"/>
</svg>
