<svg width="32" height="32" viewBox="0 0 32 32" fill="none" xmlns="http://www.w3.org/2000/svg">
<path fill-rule="evenodd" clip-rule="evenodd" d="M18.6667 11.3337C18.2985 11.3337 18.0001 11.0352 18.0001 10.667V5.3337H9.33341C8.59701 5.3337 8.00008 5.93065 8.00008 6.66703V25.3337C8.00008 26.0701 8.59701 26.667 9.33341 26.667H22.6667C23.4031 26.667 24.0001 26.0701 24.0001 25.3337V11.3337H18.6667ZM25.3334 10.667V25.3337C25.3334 26.8064 24.1395 28.0004 22.6667 28.0004H9.33341C7.86068 28.0004 6.66675 26.8064 6.66675 25.3337V6.66703C6.66675 5.19427 7.86068 4.00037 9.33341 4.00037H18.6667L25.3334 10.667ZM19.3334 6.55265L22.7811 10.0004H19.3334V6.55265Z" fill="#F18723"/>
<path fill-rule="evenodd" clip-rule="evenodd" d="M9.33398 22.0007C9.33398 21.6325 9.63245 21.334 10.0007 21.334H22.0007C22.3689 21.334 22.6673 21.6325 22.6673 22.0007C22.6673 22.3689 22.3689 22.6673 22.0007 22.6673H10.0007C9.63245 22.6673 9.33398 22.3689 9.33398 22.0007Z" fill="#F18723"/>
<path fill-rule="evenodd" clip-rule="evenodd" d="M9.33398 24.667C9.33398 24.2988 9.63245 24.0004 10.0007 24.0004H18.0007C18.3689 24.0004 18.6673 24.2988 18.6673 24.667C18.6673 25.0352 18.3689 25.3337 18.0007 25.3337H10.0007C9.63245 25.3337 9.33398 25.0352 9.33398 24.667Z" fill="#F18723"/>
<path fill-rule="evenodd" clip-rule="evenodd" d="M13.3334 10.6667C13.6026 10.6667 13.8453 10.8285 13.9488 11.077L17.2822 19.077C17.4238 19.4169 17.263 19.8072 16.9232 19.9488C16.5833 20.0904 16.193 19.9297 16.0514 19.5898L13.3334 13.0667L10.6155 19.5898C10.4739 19.9297 10.0836 20.0904 9.7437 19.9488C9.40383 19.8072 9.2431 19.4169 9.3847 19.077L12.718 11.077C12.8216 10.8285 13.0643 10.6667 13.3334 10.6667Z" fill="#F18723"/>
<path fill-rule="evenodd" clip-rule="evenodd" d="M10.6667 16.6667H16.0001V18.0001H10.6667V16.6667Z" fill="#F18723"/>
<path fill-rule="evenodd" clip-rule="evenodd" d="M20.0007 14.6667C20.3689 14.6667 20.6673 14.9652 20.6673 15.3334V19.3334C20.6673 19.7016 20.3689 20.0001 20.0007 20.0001C19.6325 20.0001 19.334 19.7016 19.334 19.3334V15.3334C19.334 14.9652 19.6325 14.6667 20.0007 14.6667Z" fill="#F18723"/>
<path fill-rule="evenodd" clip-rule="evenodd" d="M17.334 17.3334C17.334 16.9652 17.6325 16.6667 18.0007 16.6667H22.0007C22.3689 16.6667 22.6673 16.9652 22.6673 17.3334C22.6673 17.7016 22.3689 18.0001 22.0007 18.0001H18.0007C17.6325 18.0001 17.334 17.7016 17.334 17.3334Z" fill="#F18723"/>
</svg>
