<svg width="178" height="60" viewBox="0 0 178 60" fill="none" xmlns="http://www.w3.org/2000/svg">
<path d="M46.309 57.5511C46.1346 57.5569 45.9607 57.5315 45.7986 57.4766C45.6366 57.4218 45.49 57.3387 45.3683 57.2328C45.1201 56.9889 44.9954 56.6722 45.021 56.3511C45.0143 56.2451 45.0143 56.1388 45.021 56.0328C45.021 55.9226 45.021 55.8124 45.021 55.7022C45.0441 55.6018 45.078 55.5034 45.1223 55.4083H45.6722C45.6722 55.5552 45.6722 55.7144 45.6722 55.8614C45.6578 56.008 45.6578 56.1555 45.6722 56.3022C45.6595 56.4968 45.7204 56.6898 45.8459 56.8532C45.8968 56.9204 45.9677 56.9751 46.0516 57.0116C46.1354 57.0482 46.2292 57.0653 46.3234 57.0613H48.7981V54.5267H49.3769V57.5511H46.309ZM46.5839 54.5267C46.5337 54.5287 46.4834 54.5221 46.4362 54.5074C46.389 54.4927 46.3457 54.4701 46.309 54.4409C46.2675 54.4035 46.2357 54.359 46.2158 54.3105C46.1959 54.262 46.1882 54.2105 46.1932 54.1593C46.1879 54.0564 46.2294 53.9556 46.309 53.8777C46.3872 53.8247 46.4837 53.7946 46.5839 53.792C46.6374 53.7913 46.6906 53.7996 46.7402 53.8164C46.7899 53.8333 46.8352 53.8582 46.8734 53.8899C46.9432 53.9716 46.9789 54.0708 46.9747 54.1716C46.9791 54.2686 46.9432 54.3639 46.8734 54.4409C46.8259 54.4789 46.7669 54.5047 46.7029 54.5156C46.6389 54.5264 46.5726 54.5218 46.5116 54.5022L46.5839 54.5267ZM47.7851 54.5267C47.731 54.5316 47.6764 54.5252 47.626 54.5081C47.5755 54.491 47.5308 54.4638 47.4956 54.4287C47.4579 54.3921 47.4294 54.3492 47.4119 54.3029C47.3945 54.2566 47.3885 54.2077 47.3943 54.1593C47.3836 54.0579 47.4199 53.9568 47.4956 53.8777C47.5328 53.8448 47.5779 53.819 47.6278 53.8021C47.6777 53.7852 47.7314 53.7776 47.7851 53.7797C47.8381 53.7772 47.8911 53.786 47.9391 53.8052C47.9871 53.8245 48.0287 53.8536 48.06 53.8899C48.1335 53.9653 48.1698 54.0618 48.1613 54.1593C48.1684 54.2566 48.1322 54.3527 48.06 54.4287C48.0222 54.4633 47.9739 54.4885 47.9203 54.5015C47.8667 54.5144 47.8099 54.5147 47.7561 54.5022L47.7851 54.5267Z" fill="white"/>
<path d="M52.0975 57.037V57.5513H50.6504V52.8125H51.2582V57.0615L52.0975 57.037Z" fill="white"/>
<path d="M56.2364 57.0364V57.5506H52.0107V57.1221H53.0672C52.985 57.0408 52.9168 56.9501 52.8646 56.8527C52.8154 56.7453 52.7767 56.6348 52.7488 56.5221C52.7346 56.4122 52.7346 56.3013 52.7488 56.1915C52.7379 55.8937 52.8176 55.5985 52.9803 55.3343C53.1354 55.1048 53.3603 54.9145 53.6315 54.7833C53.9463 54.6514 54.2934 54.5842 54.6446 54.5874H55.5418V57.1221L56.2364 57.0364ZM54.9195 57.0364V54.9915H54.6156C54.3748 54.9896 54.1368 55.0357 53.921 55.1261C53.7311 55.2132 53.5753 55.3451 53.4724 55.5057C53.3648 55.6921 53.315 55.8986 53.3276 56.1057C53.3174 56.2813 53.3519 56.4567 53.4289 56.62C53.4898 56.7534 53.602 56.8655 53.7473 56.9384C53.9059 57.0136 54.087 57.0477 54.2683 57.0364H54.9195ZM54.2538 53.8772C54.2003 53.8778 54.1472 53.8695 54.0975 53.8527C54.0479 53.8359 54.0026 53.8109 53.9644 53.7792C53.8945 53.6975 53.8589 53.5984 53.8631 53.4976C53.861 53.4008 53.8966 53.3061 53.9644 53.2282C54.0026 53.1965 54.0479 53.1715 54.0975 53.1547C54.1472 53.1379 54.2003 53.1296 54.2538 53.1302C54.3075 53.1281 54.3612 53.1358 54.4111 53.1526C54.461 53.1695 54.5061 53.1953 54.5433 53.2282C54.6092 53.3069 54.6446 53.4011 54.6446 53.4976C54.6467 53.5981 54.6112 53.6967 54.5433 53.7792C54.5061 53.8121 54.461 53.8378 54.4111 53.8547C54.3612 53.8716 54.3075 53.8793 54.2538 53.8772Z" fill="white"/>
<path d="M56.1641 57.5506V57.122H57.0179V52.873H57.5968V55.9343C57.7203 55.6539 57.8909 55.3899 58.1033 55.1506C58.2798 54.9589 58.5016 54.8005 58.7545 54.6853C58.9835 54.5753 59.2437 54.5202 59.507 54.5261C59.727 54.5105 59.9483 54.5377 60.154 54.6056C60.3597 54.6735 60.5443 54.7804 60.6937 54.9179C61.0028 55.2698 61.1471 55.7059 61.0989 56.1424V57.1465H62.0106V57.5506H56.1641ZM60.5055 57.0608V56.0812C60.5402 55.7805 60.4423 55.4796 60.2306 55.2363C60.1226 55.142 59.9915 55.069 59.8464 55.0224C59.7013 54.9759 59.5459 54.9569 59.3912 54.9669C59.149 54.9632 58.9114 55.0231 58.7111 55.1384C58.4748 55.2846 58.2735 55.4674 58.1177 55.6771C57.9039 55.9527 57.729 56.2486 57.5968 56.5588V57.0608H60.5055ZM59.3333 53.8771C59.2818 53.8791 59.2304 53.8713 59.1828 53.8544C59.1352 53.8375 59.0927 53.8118 59.0584 53.7792C58.9826 53.7 58.9463 53.599 58.9571 53.4975C58.9486 53.4001 58.9849 53.3036 59.0584 53.2282C59.0927 53.1956 59.1352 53.1699 59.1828 53.1529C59.2304 53.136 59.2818 53.1282 59.3333 53.1302C59.387 53.1281 59.4407 53.1357 59.4906 53.1526C59.5405 53.1695 59.5856 53.1953 59.6228 53.2282C59.695 53.3042 59.7311 53.4002 59.7241 53.4975C59.7333 53.5989 59.6972 53.6994 59.6228 53.7792C59.5856 53.812 59.5405 53.8378 59.4906 53.8547C59.4407 53.8716 59.387 53.8792 59.3333 53.8771Z" fill="white"/>
<path d="M61.9382 57.5509V57.1224H62.8499V54.5877H63.4577V57.1224H64.355V57.5509H61.9382ZM63.1249 53.8775C63.0736 53.8779 63.0227 53.8694 62.9754 53.8525C62.9282 53.8357 62.8855 53.8108 62.8499 53.7795C62.7742 53.7003 62.7379 53.5993 62.7486 53.4979C62.7402 53.4004 62.7764 53.3039 62.8499 53.2285C62.8855 53.1972 62.9282 53.1723 62.9754 53.1555C63.0227 53.1386 63.0736 53.1301 63.1249 53.1305C63.1787 53.1276 63.2326 53.1348 63.2827 53.1518C63.3328 53.1687 63.3778 53.1949 63.4143 53.2285C63.4865 53.3045 63.5227 53.4005 63.5156 53.4979C63.5249 53.5992 63.4887 53.6997 63.4143 53.7795C63.3778 53.8131 63.3328 53.8393 63.2827 53.8562C63.2326 53.8732 63.1787 53.8804 63.1249 53.8775Z" fill="white"/>
<path d="M65.122 57.0368C65.0387 56.8533 64.971 56.6651 64.9194 56.4735C64.8991 56.3066 64.8991 56.1384 64.9194 55.9714C64.8973 55.8005 64.8973 55.6281 64.9194 55.4572C64.9557 55.2953 65.0191 55.1386 65.1075 54.9919C65.2794 54.8576 65.4811 54.7535 65.7009 54.6857C65.9137 54.6018 66.1463 54.5599 66.381 54.5633C66.5108 54.5505 66.6419 54.5505 66.7718 54.5633C66.8979 54.5913 67.0194 54.6324 67.1335 54.6857C67.3515 54.8074 67.5265 54.9766 67.64 55.1755C67.7587 55.403 67.818 55.6494 67.8137 55.898C67.8287 56.0242 67.8287 56.1514 67.8137 56.2776C67.7953 56.3987 67.7613 56.5178 67.7124 56.6327C67.7834 56.751 67.8942 56.849 68.0308 56.9143C68.1869 56.9677 68.3545 56.9927 68.5228 56.9878V57.551C68.3107 57.5575 68.0992 57.5284 67.9005 57.4653C67.7061 57.392 67.5331 57.2833 67.394 57.147C67.2554 57.2807 67.0821 57.3855 66.8875 57.4531C66.6956 57.5224 66.4883 57.5558 66.2797 57.551H64.2971V57.1225L65.122 57.0368ZM65.4838 55.8123C65.4623 55.9996 65.4623 56.1882 65.4838 56.3755C65.5208 56.582 65.5889 56.7837 65.6864 56.9755H66.1784C66.3629 56.9818 66.5451 56.939 66.6994 56.8531C66.8475 56.7611 66.9586 56.6329 67.0178 56.4857C67.0982 56.2889 67.1374 56.0817 67.1335 55.8735C67.1413 55.6435 67.0543 55.4184 66.8875 55.2368C66.824 55.1602 66.7395 55.0979 66.6411 55.0552C66.5428 55.0126 66.4336 54.9908 66.3231 54.9919C66.1755 54.9922 66.0288 55.0129 65.889 55.0531C65.7492 55.0962 65.6212 55.1628 65.5127 55.249C65.4994 55.3343 65.4994 55.4208 65.5127 55.5061C65.5019 55.6284 65.5019 55.7512 65.5127 55.8735L65.4838 55.8123Z" fill="white"/>
<path d="M68.4794 57.5506V57.122H69.4634V52.873H70.0712V57.5506H68.4794Z" fill="white"/>
<path d="M71.3882 52.7881H71.996V57.5514H71.3882V52.7881Z" fill="white"/>
<path d="M77.2347 57.5514C76.9091 57.5625 76.5854 57.5035 76.2941 57.3799C76.0387 57.2711 75.8272 57.1006 75.6862 56.8901C75.5465 56.6505 75.4771 56.3859 75.4836 56.1187C75.4728 55.8209 75.5525 55.5258 75.7152 55.2616C75.8669 55.033 76.0929 54.846 76.3664 54.7228C76.6811 54.5908 77.0282 54.5237 77.3794 54.5269H77.828V54.135H78.4214V57.0616H79.2028V57.5514H77.2347ZM77.828 57.0616V55.0167H77.3939C77.0443 55.0019 76.7018 55.1029 76.4388 55.2983C76.3217 55.407 76.2319 55.5347 76.1747 55.6736C76.1175 55.8125 76.0941 55.9597 76.1059 56.1065C76.0876 56.2345 76.1037 56.3645 76.153 56.4865C76.2023 56.6086 76.2836 56.7197 76.3907 56.8115C76.4978 56.9033 76.628 56.9735 76.7717 57.0168C76.9153 57.0601 77.0686 57.0754 77.2202 57.0616H77.828ZM76.8874 53.5595C76.837 53.5622 76.7865 53.556 76.7392 53.5413C76.6918 53.5265 76.6487 53.5035 76.6124 53.4738C76.5256 53.4738 76.4967 53.3269 76.4967 53.1922C76.4855 53.1445 76.4874 53.0953 76.5022 53.0484C76.517 53.0014 76.5443 52.958 76.582 52.9213C76.6197 52.8847 76.6669 52.8558 76.7198 52.837C76.7727 52.8181 76.83 52.8098 76.8874 52.8126C76.9387 52.8122 76.9895 52.8207 77.0368 52.8375C77.0841 52.8544 77.1268 52.8792 77.1623 52.9105C77.2289 52.9937 77.2645 53.0918 77.2645 53.1922C77.2645 53.2926 77.2289 53.3907 77.1623 53.4738C77.1238 53.4992 77.0795 53.5177 77.0323 53.5282C76.985 53.5387 76.9357 53.5411 76.8874 53.535V53.5595ZM78.074 53.5595C78.0236 53.563 77.9729 53.5572 77.9254 53.5424C77.8779 53.5276 77.8348 53.5042 77.7991 53.4738C77.724 53.3937 77.6831 53.2944 77.6831 53.1922C77.6831 53.0899 77.724 52.9906 77.7991 52.9105C77.8356 52.8783 77.8794 52.8527 77.9279 52.8351C77.9764 52.8176 78.0286 52.8086 78.0813 52.8086C78.134 52.8086 78.1862 52.8176 78.2347 52.8351C78.2832 52.8527 78.327 52.8783 78.3635 52.9105C78.437 52.9859 78.4733 53.0824 78.4648 53.1799C78.4718 53.2773 78.4357 53.3733 78.3635 53.4493C78.3062 53.4997 78.2288 53.5302 78.1464 53.535L78.074 53.5595Z" fill="white"/>
<path d="M79.1449 57.5513V57.1227H80.2013C80.0998 57.0439 80.0121 56.9532 79.9408 56.8533C79.8665 56.7339 79.8129 56.6061 79.7816 56.4737C79.7595 56.3233 79.7595 56.1711 79.7816 56.0207C79.7738 55.7456 79.8432 55.4728 79.9842 55.2248C80.1129 55.0087 80.3143 54.8298 80.5631 54.7105C80.8276 54.5839 81.1277 54.5204 81.4314 54.5268C81.617 54.5275 81.8018 54.5481 81.9813 54.588C82.1215 54.6154 82.2575 54.6565 82.3865 54.7105L82.1984 55.1758L81.7932 55.0533H81.388C81.2009 55.0475 81.0156 55.0857 80.8525 55.1635C80.7043 55.2478 80.5886 55.367 80.5197 55.5064C80.4441 55.6913 80.4097 55.8864 80.4184 56.0819C80.4109 56.2733 80.4452 56.4643 80.5197 56.6452C80.579 56.7924 80.684 56.9235 80.8236 57.0248C80.8816 57.0707 80.9499 57.1062 81.0245 57.1294C81.0991 57.1525 81.1784 57.1627 81.2577 57.1595H82.4878V57.6493L79.1449 57.5513Z" fill="white"/>
<path d="M84.948 57.037V57.5513H83.5009V52.8125H84.1087V57.0615L84.948 57.037Z" fill="white"/>
<path d="M84.8756 57.5513V57.1227H85.7873V54.588H86.4096V57.1227H87.3068V57.5513H84.8756ZM86.0768 53.8778C86.0233 53.8784 85.9701 53.8701 85.9205 53.8533C85.8708 53.8365 85.8255 53.8115 85.7873 53.7798C85.7116 53.7007 85.6752 53.5997 85.686 53.4982C85.6775 53.4007 85.7138 53.3042 85.7873 53.2288C85.8653 53.1659 85.969 53.1309 86.0768 53.1309C86.1845 53.1309 86.2881 53.1659 86.3662 53.2288C86.427 53.309 86.4573 53.403 86.453 53.4982C86.4594 53.5974 86.429 53.6959 86.3662 53.7798C86.328 53.8115 86.2827 53.8365 86.233 53.8533C86.1834 53.8701 86.1302 53.8784 86.0768 53.8778Z" fill="white"/>
<path d="M87.2345 57.5512V57.1227H88.0738V54.7839H88.6672V55.9349C88.785 55.6523 88.956 55.3876 89.1737 55.1512C89.3417 54.9574 89.5594 54.7984 89.8104 54.6859C90.046 54.5787 90.3099 54.5239 90.5774 54.5267C90.7974 54.5111 91.0188 54.5383 91.2245 54.6062C91.4301 54.6742 91.6147 54.781 91.7641 54.9186C92.0681 55.2721 92.2072 55.7081 92.1548 56.1431V57.1472H93.0665V57.5512H87.2345ZM91.576 57.0614V56.0819C91.6065 55.7796 91.5034 55.4785 91.2865 55.2369C91.1792 55.142 91.0481 55.0685 90.9029 55.0218C90.7577 54.9752 90.602 54.9567 90.4472 54.9676C90.2098 54.9656 89.9774 55.0254 89.7815 55.139C89.5417 55.2818 89.3396 55.4653 89.1882 55.6778C88.9743 55.9534 88.7995 56.2493 88.6672 56.5594V57.0614H91.576Z" fill="white"/>
<path d="M92.9941 57.5506V57.122H93.9058V52.873H94.5281V57.5506H92.9941Z" fill="white"/>
<path d="M99.3037 57.551C99.1293 57.5567 98.9554 57.5313 98.7934 57.4764C98.6313 57.4216 98.4847 57.3385 98.3631 57.2326C98.1149 56.9888 97.9901 56.672 98.0158 56.351C98.0091 56.2449 98.0091 56.1387 98.0158 56.0326C98.0329 55.9214 98.057 55.811 98.0881 55.702C98.0881 55.5877 98.117 55.4898 98.1749 55.4081H98.7249C98.7249 55.5551 98.7249 55.7142 98.7249 55.8612C98.7249 56.0081 98.7249 56.1551 98.7249 56.302C98.7122 56.4966 98.773 56.6896 98.8985 56.853C98.9504 56.9194 99.0216 56.9734 99.1052 57.0098C99.1888 57.0462 99.2821 57.0639 99.3761 57.0612H101.851V54.5265H102.444V57.0612H103.356V57.551H99.3037ZM99.6366 54.5265C99.5355 54.5279 99.4374 54.4974 99.3616 54.4408C99.3201 54.4033 99.2884 54.3589 99.2684 54.3103C99.2485 54.2618 99.2408 54.2103 99.2458 54.1591C99.2413 54.1061 99.2493 54.0529 99.2691 54.0024C99.289 53.952 99.3204 53.9054 99.3616 53.8653C99.4408 53.8137 99.5367 53.7838 99.6366 53.7795C99.6917 53.7771 99.7467 53.7859 99.797 53.805C99.8474 53.8242 99.8916 53.8532 99.926 53.8898C99.9995 53.9652 100.036 54.0617 100.027 54.1591C100.034 54.2565 99.9982 54.3525 99.926 54.4285C99.888 54.4592 99.842 54.4819 99.7917 54.4947C99.7414 54.5074 99.6882 54.5099 99.6366 54.502V54.5265ZM100.23 53.6938C100.184 53.6939 100.139 53.6864 100.097 53.6717C100.055 53.657 100.016 53.6354 99.9839 53.6081C99.9439 53.5748 99.9129 53.5346 99.8929 53.4902C99.8729 53.4458 99.8645 53.3984 99.8681 53.351C99.8642 53.3017 99.8725 53.2523 99.8924 53.206C99.9124 53.1596 99.9435 53.1172 99.9839 53.0816C100.051 53.031 100.14 53.0046 100.23 53.0081C100.324 53.0062 100.416 53.0322 100.49 53.0816C100.528 53.1182 100.557 53.161 100.574 53.2074C100.592 53.2537 100.598 53.3026 100.592 53.351C100.597 53.3975 100.591 53.4444 100.574 53.4887C100.556 53.5331 100.528 53.5737 100.49 53.6081C100.414 53.6523 100.322 53.6738 100.23 53.6693V53.6938ZM100.838 54.5265C100.784 54.5314 100.729 54.525 100.679 54.508C100.628 54.4909 100.583 54.4636 100.548 54.4285C100.51 54.3919 100.482 54.3491 100.465 54.3027C100.447 54.2564 100.441 54.2075 100.447 54.1591C100.436 54.0577 100.473 53.9567 100.548 53.8775C100.585 53.8446 100.631 53.8189 100.68 53.802C100.73 53.7851 100.784 53.7774 100.838 53.7795C100.893 53.7781 100.947 53.7873 100.997 53.8064C101.048 53.8255 101.092 53.854 101.127 53.8898C101.19 53.9692 101.22 54.0638 101.214 54.1591C101.218 54.2543 101.188 54.3484 101.127 54.4285C101.089 54.4584 101.042 54.4806 100.992 54.4933C100.942 54.506 100.889 54.509 100.838 54.502V54.5265Z" fill="white"/>
<path d="M103.197 57.5512V57.1226H104.528V54.5879H105.15V57.5512H103.197ZM103.645 58.7756C103.597 58.7774 103.549 58.7707 103.504 58.7559C103.459 58.7412 103.419 58.7187 103.385 58.6899C103.342 58.6534 103.309 58.6091 103.289 58.5603C103.269 58.5116 103.262 58.4596 103.269 58.4083C103.261 58.3551 103.267 58.301 103.287 58.2501C103.307 58.1992 103.34 58.1528 103.385 58.1144C103.419 58.0856 103.459 58.0632 103.504 58.0484C103.549 58.0337 103.597 58.0269 103.645 58.0287C103.699 58.0266 103.752 58.0342 103.802 58.0511C103.852 58.068 103.897 58.0938 103.935 58.1267C104.01 58.2058 104.047 58.3068 104.036 58.4083C104.044 58.5058 104.008 58.6023 103.935 58.6777C103.897 58.7106 103.852 58.7363 103.802 58.7532C103.752 58.7701 103.699 58.7778 103.645 58.7756ZM104.846 58.7756C104.793 58.7763 104.74 58.768 104.69 58.7512C104.64 58.7343 104.595 58.7094 104.557 58.6777C104.489 58.5997 104.453 58.5051 104.456 58.4083C104.451 58.3075 104.487 58.2084 104.557 58.1267C104.595 58.095 104.64 58.07 104.69 58.0532C104.74 58.0364 104.793 58.0281 104.846 58.0287C104.9 58.0266 104.954 58.0342 105.004 58.0511C105.053 58.068 105.099 58.0938 105.136 58.1267C105.204 58.2092 105.239 58.3077 105.237 58.4083C105.237 58.5048 105.202 58.5989 105.136 58.6777C105.099 58.7106 105.053 58.7363 105.004 58.7532C104.954 58.7701 104.9 58.7778 104.846 58.7756Z" fill="white"/>
<path d="M106.134 57.0364H108.435C108.407 56.8503 108.364 56.6662 108.305 56.4853C108.258 56.3181 108.195 56.1544 108.117 55.9955C107.989 55.718 107.814 55.458 107.596 55.2241C107.381 54.983 107.122 54.7723 106.829 54.5996L107.046 54.1221C107.407 54.2943 107.726 54.5229 107.987 54.7955C108.261 55.0881 108.48 55.4143 108.638 55.7629C108.818 56.1575 108.944 56.5684 109.014 56.9874H109.781V57.5506H106.134V57.0364Z" fill="white"/>
<path d="M109.709 57.5506V57.1221H112.603C112.529 57.0541 112.47 56.9753 112.429 56.8894C112.37 56.7674 112.326 56.64 112.299 56.5098C112.241 56.3371 112.198 56.1611 112.169 55.9833C112.143 55.8341 112.105 55.6868 112.053 55.5425C112.012 55.4341 111.954 55.3311 111.879 55.2364C111.815 55.1632 111.731 55.1044 111.633 55.0649C111.524 55.0454 111.41 55.0454 111.301 55.0649C111.137 55.048 110.972 55.048 110.809 55.0649C110.633 55.1124 110.464 55.1739 110.302 55.2486L110.056 54.82C110.241 54.7125 110.447 54.6337 110.664 54.5874C110.871 54.5381 111.085 54.5134 111.301 54.5139C111.43 54.5006 111.562 54.5006 111.691 54.5139C111.802 54.5351 111.909 54.568 112.01 54.6119C112.134 54.68 112.246 54.7625 112.343 54.8568C112.44 54.9717 112.514 55.1002 112.56 55.2364C112.631 55.42 112.684 55.6084 112.719 55.7996C112.744 55.9941 112.788 56.1865 112.849 56.3751C112.887 56.5217 112.94 56.6651 113.008 56.8037C113.053 56.9043 113.122 56.996 113.211 57.0731H113.674V57.5506H109.709Z" fill="white"/>
<path d="M113.674 57.5506V57.122H114.586V52.873H115.208V57.5506H113.674Z" fill="white"/>
<path d="M116.583 52.7881H117.22V57.5514H116.597L116.583 52.7881Z" fill="white"/>
<path d="M121.937 59.0209C121.712 59.0222 121.488 58.9975 121.271 58.9474C121.065 58.8907 120.87 58.8081 120.693 58.7025L120.968 58.2862C121.115 58.3596 121.27 58.4211 121.431 58.4698C121.598 58.5212 121.774 58.5461 121.952 58.5433C122.087 58.5489 122.222 58.5312 122.349 58.4912C122.476 58.4512 122.592 58.3898 122.69 58.3107C122.778 58.2305 122.847 58.1361 122.892 58.033C122.937 57.9299 122.956 57.8203 122.95 57.7107V57.5515H122.27C121.979 57.5599 121.69 57.5051 121.431 57.3923C121.205 57.2804 121.023 57.1142 120.91 56.9147C120.786 56.6672 120.726 56.3998 120.736 56.1311C120.723 55.837 120.803 55.5453 120.968 55.2862C121.119 55.0473 121.351 54.8514 121.633 54.7229C121.942 54.5892 122.285 54.5219 122.632 54.527H123.529V57.0617H124.093V57.5515H123.529V57.6984C123.539 57.9527 123.474 58.2051 123.341 58.4331C123.224 58.6326 123.03 58.7924 122.791 58.8862C122.524 58.9915 122.231 59.0379 121.937 59.0209ZM122.936 57.0372V54.9923H122.646C122.47 54.9789 122.292 54.9986 122.126 55.0501C121.96 55.1015 121.809 55.1834 121.685 55.2899C121.56 55.3963 121.465 55.5248 121.406 55.6659C121.347 55.8071 121.326 55.9576 121.344 56.1066C121.324 56.3587 121.405 56.6091 121.575 56.8168C121.671 56.8946 121.785 56.9544 121.909 56.9924C122.034 57.0304 122.167 57.0457 122.299 57.0372H122.936ZM121.489 53.6698H121.807C121.738 53.6217 121.679 53.5637 121.633 53.4984C121.613 53.426 121.613 53.3505 121.633 53.278C121.626 53.2011 121.639 53.1238 121.671 53.0517C121.704 52.9796 121.755 52.9147 121.821 52.8617C121.963 52.7608 122.143 52.7083 122.328 52.7147C122.489 52.7083 122.648 52.7378 122.791 52.8005L122.69 53.0821H122.531H122.342C122.294 53.0803 122.246 53.087 122.202 53.1018C122.157 53.1166 122.116 53.139 122.082 53.1678C122.044 53.1969 122.015 53.2332 121.998 53.2737C121.98 53.3142 121.974 53.3576 121.981 53.4005C121.957 53.4601 121.957 53.5245 121.981 53.5841C122.018 53.6303 122.067 53.6681 122.125 53.6943H122.227H122.444H122.661H122.82V54.0005H122.531H122.212H121.85H121.489V53.6698Z" fill="white"/>
<path d="M124.021 57.5506V57.122H124.933V52.873H125.555V57.5506H124.021Z" fill="white"/>
<path d="M127.943 59.0209C127.718 59.023 127.494 58.9983 127.277 58.9474C127.07 58.8933 126.874 58.8106 126.698 58.7025L126.973 58.2862C127.117 58.3572 127.267 58.4186 127.422 58.4698C127.589 58.5212 127.765 58.5461 127.943 58.5433C128.078 58.5512 128.214 58.5345 128.342 58.4944C128.469 58.4542 128.585 58.3916 128.681 58.3107C128.774 58.2328 128.847 58.1391 128.895 58.0356C128.942 57.9322 128.963 57.8214 128.956 57.7107V57.5515H128.276C127.984 57.561 127.695 57.5061 127.436 57.3923C127.207 57.2842 127.024 57.1169 126.915 56.9147C126.786 56.6681 126.722 56.4007 126.727 56.1311C126.719 55.836 126.804 55.5444 126.973 55.2862C127.124 55.0506 127.35 54.8555 127.625 54.7229C127.935 54.5924 128.277 54.5253 128.623 54.527H129.535V57.0617H130.099V57.5515H129.535V57.6984C129.537 57.9521 129.473 58.203 129.347 58.4331C129.225 58.6299 129.032 58.7886 128.797 58.8862C128.53 58.9915 128.236 59.0379 127.943 59.0209ZM128.941 57.0372V54.9923H128.652C128.477 54.9817 128.302 55.0023 128.137 55.053C127.973 55.1036 127.823 55.1831 127.697 55.2862C127.576 55.3958 127.483 55.525 127.423 55.6661C127.364 55.8071 127.339 55.957 127.35 56.1066C127.323 56.3592 127.405 56.6114 127.581 56.8168C127.674 56.8943 127.785 56.954 127.907 56.992C128.03 57.0301 128.16 57.0455 128.29 57.0372H128.941ZM127.494 53.6698H127.813C127.743 53.6217 127.685 53.5637 127.639 53.4984C127.62 53.4259 127.62 53.3506 127.639 53.278C127.634 53.2003 127.65 53.1226 127.685 53.0506C127.72 52.9786 127.774 52.9141 127.842 52.8617C127.982 52.7597 128.163 52.7071 128.348 52.7147C128.509 52.7083 128.668 52.7378 128.811 52.8005L128.695 53.0821H128.551H128.363C128.315 53.0803 128.267 53.087 128.222 53.1018C128.177 53.1166 128.136 53.139 128.102 53.1678C128.064 53.1969 128.036 53.2332 128.018 53.2737C128 53.3142 127.994 53.3576 128.001 53.4005C127.978 53.4601 127.978 53.5245 128.001 53.5841C128.038 53.6303 128.087 53.6681 128.146 53.6943H128.247H128.464H128.681H128.797V54.0005H128.507H128.189H127.827H127.465L127.494 53.6698Z" fill="white"/>
<path d="M130.027 57.5506V57.122H130.939V52.873H131.561V57.122H132.458V57.5506H130.027Z" fill="white"/>
<path d="M132.386 57.5506V57.122H133.297V52.873H133.905V57.5506H132.386Z" fill="white"/>
<path d="M135.294 52.7881H135.902V57.5514H135.294V52.7881Z" fill="white"/>
<path fill-rule="evenodd" clip-rule="evenodd" d="M47.4666 24.38C46.8299 26.0821 46.2365 27.7596 45.7156 29.4005C45.6207 29.7312 45.3972 30.0254 45.0809 30.2358C44.7647 30.4462 44.3741 30.5606 43.9718 30.5606C43.5695 30.5606 43.1788 30.4462 42.8626 30.2358C42.5464 30.0254 42.3228 29.7312 42.2279 29.4005C41.6925 27.6739 41.1281 26.0331 40.5348 24.5025L34.3699 8.7678H21.606V39.9923C5.68729 27.1596 7.97379 2.78004 35.3829 0.869838C28.4821 0.66477 21.6777 2.28713 15.9187 5.51066C11.1935 8.09727 7.30976 11.6447 4.62248 15.8286C1.9352 20.0126 0.530034 24.6998 0.535416 29.4617C0.557778 34.5174 2.14802 39.4797 5.1472 43.8525C8.14639 48.2253 12.4494 51.8554 17.6263 54.3801C22.4309 56.7188 32.4018 59.8535 42.1556 54.8943C20.593 57.3923 14.7609 45.3066 13.9071 41.6331C16.9737 44.1123 21.0137 45.5468 25.2528 45.6617C25.906 45.6716 26.5549 45.5701 27.1607 45.3632C27.7665 45.1563 28.3168 44.8482 28.7787 44.4573C29.2406 44.0664 29.6048 43.6008 29.8493 43.0882C30.0939 42.5756 30.2139 42.0266 30.2021 41.4739C30.2021 37.9964 30.1153 33.2576 30.1153 33.2576C30.1153 28.8005 29.9416 23.0331 29.5943 15.9556C30.6951 20.2924 32.0866 24.5728 33.7621 28.776L39.2179 42.1229C39.5491 42.9398 40.1732 43.649 41.0033 44.1517C41.8333 44.6543 42.828 44.9253 43.8488 44.927C44.8835 44.9277 45.8921 44.6524 46.7313 44.1402C47.5704 43.628 48.1974 42.905 48.5231 42.0739L53.8196 28.4086C55.2957 24.6453 56.6995 20.429 58.0309 15.7596C57.6546 22.1515 57.4665 28.2535 57.4665 34.0658V41.8045C57.4665 42.6229 57.8507 43.4078 58.5346 43.9865C59.2185 44.5651 60.1461 44.8903 61.1133 44.8903H62.3289C62.809 44.8919 63.2848 44.8132 63.7289 44.6589C64.1731 44.5045 64.5768 44.2775 64.917 43.9908C65.2571 43.7041 65.5271 43.3634 65.7112 42.9882C65.8954 42.613 65.9902 42.2108 65.9902 41.8045V8.74331H53.3276L47.4666 24.38Z" fill="white"/>
<path fill-rule="evenodd" clip-rule="evenodd" d="M93.9492 9.40389C91.5129 8.91962 89.0124 8.70558 86.5108 8.76716H69.9409V41.8284C69.9409 42.2346 70.0357 42.6369 70.2199 43.0121C70.4041 43.3872 70.674 43.728 71.0142 44.0147C71.3543 44.3014 71.7581 44.5284 72.2022 44.6827C72.6463 44.8371 73.1221 44.9157 73.6022 44.9141H75.252C76.2192 44.9141 77.1468 44.589 77.8307 44.0103C78.5146 43.4316 78.8988 42.6468 78.8988 41.8284V31.8365H88.1172C89.7096 31.8555 91.3001 31.7365 92.8638 31.4814C94.9108 31.1637 96.8225 30.3951 98.4064 29.2529C99.8752 28.1465 101.029 26.773 101.781 25.2355C102.533 23.698 102.863 22.0364 102.748 20.3753C102.842 17.9275 102.038 15.5151 100.447 13.4692C98.9352 11.4923 96.626 10.0476 93.9492 9.40389ZM92.0245 24.4896C90.5242 25.3486 88.721 25.7463 86.916 25.6161H78.8988V15.4529H86.424C88.265 15.331 90.1076 15.6718 91.7206 16.4325C92.477 16.8925 93.0816 17.5088 93.4768 18.2225C93.872 18.9363 94.0446 19.7238 93.9782 20.51C94.0262 21.2549 93.8756 21.9993 93.5374 22.6882C93.1992 23.3771 92.6821 23.9928 92.0245 24.4896Z" fill="white"/>
<path fill-rule="evenodd" clip-rule="evenodd" d="M136.496 32.1547C136.221 34.1506 134.079 35.6935 133.095 36.9302C131.517 38.9384 127.465 39.9425 124.021 39.3792C122.383 39.1471 120.827 38.6076 119.467 37.8003C118.107 36.993 116.978 35.9384 116.163 34.7139C114.627 32.3385 113.877 29.6565 113.992 26.9506C113.883 24.2761 114.607 21.6242 116.091 19.2608C116.857 17.9525 118.055 16.8598 119.539 16.1146C121.023 15.3693 122.731 15.0034 124.455 15.0608C125.695 15.0074 126.933 15.1885 128.08 15.591C129.226 15.9934 130.252 16.6071 131.083 17.3874C132.125 18.3792 133.978 19.5547 134.282 21.0608L140.808 20.5465C140.548 17.6567 140.085 15.6486 137.74 13.4812C136.1 11.9258 134.075 10.6957 131.809 9.87872C129.542 9.06171 127.091 8.67792 124.629 8.75471C121.99 8.66664 119.361 9.0833 116.938 9.9737C114.515 10.8641 112.361 12.2053 110.635 13.8976C107.071 17.5082 105.201 22.1019 105.382 26.8037C105.178 31.2315 106.732 35.5897 109.796 39.1833C111.472 41.0688 113.665 42.5805 116.187 43.5875C118.708 44.5945 121.482 45.0666 124.267 44.9629C130.114 44.9629 134.624 43.2976 137.798 39.967C140.252 37.3469 141.683 34.1462 141.894 30.8078L136.496 32.1547Z" fill="white"/>
<path d="M171.56 19.0901C170.234 17.8843 168.618 16.9327 166.82 16.2991C165.023 15.6655 163.087 15.3646 161.141 15.4166C159.033 15.3361 156.931 15.6511 154.984 16.3392C153.038 17.0272 151.295 18.0712 149.882 19.3962C147.297 21.9747 145.967 25.2884 146.163 28.6656C145.989 32.1059 147.371 35.4729 150.027 38.0819C152.84 40.4495 156.623 41.8087 160.591 41.8771C164.558 41.9456 168.404 40.7179 171.329 38.4493C172.783 37.1438 173.911 35.6032 174.645 33.9199C175.378 32.2366 175.702 30.4453 175.598 28.6534C175.795 25.1398 174.344 21.7025 171.56 19.0901ZM165.772 34.8738C165.209 35.5013 164.476 36.0048 163.635 36.3416C162.793 36.6784 161.868 36.8386 160.938 36.8085C159.951 36.8341 158.971 36.6557 158.083 36.2887C157.195 35.9218 156.427 35.3772 155.844 34.7023C154.49 32.9243 153.846 30.8255 154.006 28.7146C153.862 26.5935 154.505 24.4873 155.844 22.6901C156.431 22.0214 157.195 21.4783 158.074 21.104C158.954 20.7298 159.925 20.5349 160.909 20.5349C161.894 20.5349 162.864 20.7298 163.744 21.104C164.623 21.4783 165.387 22.0214 165.974 22.6901C167.265 24.4573 167.882 26.518 167.74 28.5921C167.928 30.8182 167.219 33.0326 165.728 34.8738H165.772Z" fill="white"/>
<path fill-rule="evenodd" clip-rule="evenodd" d="M176.553 38.0817C178.97 34.3226 174.686 31.4695 171.488 32.9022C168.29 34.3348 165.96 38.743 162.892 40.0042L162.255 40.2491C156.828 43.543 150.982 41.0573 148.319 36.1103C148.758 37.6133 149.534 39.0309 150.605 40.2858C152.305 42.0537 154.526 43.4098 157.045 44.2164C160.614 45.4338 164.591 45.4809 168.199 44.3487C171.807 43.2164 174.785 40.9861 176.553 38.094V38.0817Z" fill="white"/>
<path fill-rule="evenodd" clip-rule="evenodd" d="M165.656 38.0573C158.724 44.3756 147.624 38.5593 147.031 31.3838C146.972 32.5742 147.113 33.7658 147.451 34.9226C147.968 36.7777 148.956 38.5156 150.345 40.0164C153.615 43.494 160.634 44.3144 165.656 38.0573Z" fill="white"/>
<path fill-rule="evenodd" clip-rule="evenodd" d="M142.921 33.612C143.934 29.1548 138.58 27.4161 135.816 29.7426C133.051 32.0691 132.444 37.163 129.824 39.2691L129.26 39.6854C125.02 44.5099 118.146 43.5793 113.573 39.2936C114.589 40.6918 115.916 41.9102 117.48 42.8814C119.865 44.2162 122.627 44.9896 125.483 45.1222C128.123 45.2888 130.773 44.9193 133.211 44.0446C135.708 43.1031 137.898 41.6613 139.59 39.8436C141.281 38.026 142.425 35.8872 142.921 33.612Z" fill="white"/>
<path fill-rule="evenodd" clip-rule="evenodd" d="M131.865 36.5507C127.234 44.8405 113.804 41.9629 110.476 34.8486C110.859 36.0712 111.454 37.239 112.241 38.3139C113.475 40.0521 115.138 41.5434 117.118 42.6854C121.735 45.3058 129.115 44.265 131.865 36.5507Z" fill="white"/>
<path fill-rule="evenodd" clip-rule="evenodd" d="M141.083 17.4366C143.268 21.5876 138.464 24.3182 135.208 22.5672C131.952 20.8162 129.926 15.9794 126.814 14.4366L126.148 14.1305C120.736 10.2611 114.296 12.4774 110.982 17.5223C111.616 15.9621 112.599 14.5196 113.877 13.2733C115.861 11.5274 118.358 10.2596 121.112 9.59984C125.014 8.55838 129.235 8.78864 132.946 10.2454C136.657 11.7022 139.59 14.2802 141.17 17.4733L141.083 17.4366Z" fill="white"/>
<path fill-rule="evenodd" clip-rule="evenodd" d="M129.52 16.6903C122.806 9.5025 110.49 14.878 109.144 22.4454C109.195 21.1944 109.463 19.9565 109.94 18.7719C110.68 16.8389 111.904 15.0638 113.529 13.5678C117.321 10.078 124.788 9.71066 129.52 16.6903Z" fill="white"/>
<path fill-rule="evenodd" clip-rule="evenodd" d="M5.09401 18.6123C2.26544 23.279 1.20495 28.5699 2.05687 33.7647C2.9088 38.9596 5.63175 43.8062 9.85515 47.645C9.85515 47.645 0.188155 35.9143 5.09401 18.6123Z" fill="white"/>
<path d="M56.5692 15.4531L46.6852 41.596" stroke="white" stroke-width="0.5" stroke-linecap="round" stroke-linejoin="round"/>
<path d="M71.7499 9.84473V42.2325" stroke="white" stroke-width="0.5" stroke-linecap="round" stroke-linejoin="round"/>
<path d="M64.1958 9.84473V42.2325" stroke="white" stroke-width="0.5" stroke-linecap="round" stroke-linejoin="round"/>
<path d="M23.5741 9.84473V42.2325" stroke="white" stroke-width="0.5" stroke-linecap="round" stroke-linejoin="round"/>
<path d="M107.191 23.8281C107.191 23.8281 104.788 30.3547 110.476 37.6893" stroke="white" stroke-width="0.5" stroke-linecap="round" stroke-linejoin="round"/>
<path d="M149.983 21.6855C149.983 21.6855 144.86 29.5468 150.721 36.808" stroke="white" stroke-width="0.56" stroke-linecap="round" stroke-linejoin="round"/>
<path d="M173.485 30.4411C173.485 30.4411 174.932 23.0942 168.087 18.8574" stroke="white" stroke-width="1.12" stroke-linecap="round" stroke-linejoin="round"/>
</svg>
