<svg width="173" height="60" viewBox="0 0 173 60" fill="none" xmlns="http://www.w3.org/2000/svg">
<g clip-path="url(#clip0_121_953)">
<path d="M45.0081 57.5511C44.8386 57.5569 44.6696 57.5315 44.5121 57.4766C44.3546 57.4218 44.2121 57.3387 44.0939 57.2328C43.8527 56.9889 43.7314 56.6722 43.7563 56.3511C43.7498 56.2451 43.7498 56.1388 43.7563 56.0328C43.7563 55.9226 43.7563 55.8124 43.7563 55.7022C43.7788 55.6018 43.8118 55.5034 43.8548 55.4083H44.3893C44.3893 55.5552 44.3893 55.7144 44.3893 55.8614C44.3752 56.008 44.3752 56.1555 44.3893 56.3022C44.3769 56.4968 44.436 56.6898 44.558 56.8532C44.6075 56.9204 44.6765 56.9751 44.758 57.0116C44.8395 57.0482 44.9306 57.0653 45.0222 57.0613H47.4273V54.5267H47.9899V57.5511H45.0081ZM45.2754 54.5267C45.2265 54.5287 45.1777 54.5221 45.1318 54.5074C45.0859 54.4927 45.0438 54.4701 45.0081 54.4409C44.9678 54.4035 44.937 54.359 44.9176 54.3105C44.8982 54.262 44.8907 54.2105 44.8956 54.1593C44.8905 54.0564 44.9308 53.9556 45.0081 53.8777C45.0842 53.8247 45.178 53.7946 45.2754 53.792C45.3274 53.7913 45.379 53.7996 45.4273 53.8164C45.4756 53.8333 45.5195 53.8582 45.5567 53.8899C45.6246 53.9716 45.6592 54.0708 45.6551 54.1716C45.6594 54.2686 45.6246 54.3639 45.5567 54.4409C45.5106 54.4789 45.4531 54.5047 45.391 54.5156C45.3288 54.5264 45.2643 54.5218 45.205 54.5022L45.2754 54.5267ZM46.4428 54.5267C46.3902 54.5316 46.3372 54.5252 46.2881 54.5081C46.2391 54.491 46.1956 54.4638 46.1615 54.4287C46.1247 54.3921 46.097 54.3492 46.0801 54.3029C46.0632 54.2566 46.0574 54.2077 46.063 54.1593C46.0525 54.0579 46.0878 53.9568 46.1615 53.8777C46.1976 53.8448 46.2414 53.819 46.2899 53.8021C46.3384 53.7852 46.3906 53.7776 46.4428 53.7797C46.4943 53.7772 46.5458 53.786 46.5925 53.8052C46.6392 53.8245 46.6796 53.8536 46.71 53.8899C46.7814 53.9653 46.8167 54.0618 46.8085 54.1593C46.8153 54.2566 46.7802 54.3527 46.71 54.4287C46.6732 54.4633 46.6262 54.4885 46.5741 54.5015C46.522 54.5144 46.4669 54.5147 46.4146 54.5022L46.4428 54.5267Z" fill="#0B3C5B"/>
<path d="M50.6342 57.037V57.5513H49.2277V52.8125H49.8184V57.0615L50.6342 57.037Z" fill="#0B3C5B"/>
<path d="M54.6568 57.0364V57.5506H50.5498V57.1221H51.5765C51.4967 57.0408 51.4304 56.9501 51.3796 56.8527C51.3319 56.7453 51.2942 56.6348 51.2671 56.5221C51.2533 56.4122 51.2533 56.3013 51.2671 56.1915C51.2565 55.8937 51.334 55.5985 51.4922 55.3343C51.6429 55.1048 51.8614 54.9145 52.1251 54.7833C52.4309 54.6514 52.7683 54.5842 53.1096 54.5874H53.9817V57.1221L54.6568 57.0364ZM53.3769 57.0364V54.9915H53.0815C52.8474 54.9896 52.6162 55.0357 52.4064 55.1261C52.2219 55.2132 52.0704 55.3451 51.9704 55.5057C51.8659 55.6921 51.8175 55.8986 51.8297 56.1057C51.8197 56.2813 51.8533 56.4567 51.9282 56.62C51.9873 56.7534 52.0963 56.8655 52.2376 56.9384C52.3917 57.0136 52.5678 57.0477 52.7439 57.0364H53.3769ZM52.7299 53.8772C52.6779 53.8778 52.6263 53.8695 52.578 53.8527C52.5297 53.8359 52.4857 53.8109 52.4486 53.7792C52.3807 53.6975 52.346 53.5984 52.3501 53.4976C52.3481 53.4008 52.3827 53.3061 52.4486 53.2282C52.4857 53.1965 52.5297 53.1715 52.578 53.1547C52.6263 53.1379 52.6779 53.1296 52.7299 53.1302C52.7821 53.1281 52.8342 53.1358 52.8827 53.1526C52.9313 53.1695 52.9751 53.1953 53.0112 53.2282C53.0753 53.3069 53.1097 53.4011 53.1096 53.4976C53.1117 53.5981 53.0773 53.6967 53.0112 53.7792C52.9751 53.8121 52.9313 53.8378 52.8827 53.8547C52.8342 53.8716 52.7821 53.8793 52.7299 53.8772Z" fill="#0B3C5B"/>
<path d="M54.5864 57.5506V57.122H55.4163V52.873H55.9789V55.9343C56.099 55.6539 56.2648 55.3899 56.4711 55.1506C56.6428 54.9589 56.8583 54.8005 57.1041 54.6853C57.3267 54.5753 57.5796 54.5202 57.8355 54.5261C58.0493 54.5105 58.2644 54.5377 58.4643 54.6056C58.6642 54.6735 58.8436 54.7804 58.9888 54.9179C59.2892 55.2698 59.4295 55.7059 59.3826 56.1424V57.1465H60.2687V57.5506H54.5864ZM58.8059 57.0608V56.0812C58.8396 55.7805 58.7445 55.4796 58.5387 55.2363C58.4338 55.142 58.3063 55.069 58.1653 55.0224C58.0243 54.9759 57.8733 54.9569 57.7229 54.9669C57.4875 54.9632 57.2566 55.0231 57.0619 55.1384C56.8323 55.2846 56.6366 55.4674 56.4852 55.6771C56.2774 55.9527 56.1074 56.2486 55.9789 56.5588V57.0608H58.8059ZM57.6667 53.8771C57.6166 53.8791 57.5666 53.8713 57.5204 53.8544C57.4741 53.8375 57.4328 53.8118 57.3994 53.7792C57.3258 53.7 57.2905 53.599 57.301 53.4975C57.2927 53.4001 57.328 53.3036 57.3994 53.2282C57.4328 53.1956 57.4741 53.1699 57.5204 53.1529C57.5666 53.136 57.6166 53.1282 57.6667 53.1302C57.7189 53.1281 57.771 53.1357 57.8195 53.1526C57.868 53.1695 57.9118 53.1953 57.948 53.2282C58.0181 53.3042 58.0533 53.4002 58.0464 53.4975C58.0555 53.5989 58.0203 53.6994 57.948 53.7792C57.9118 53.812 57.868 53.8378 57.8195 53.8547C57.771 53.8716 57.7189 53.8792 57.6667 53.8771Z" fill="#0B3C5B"/>
<path d="M60.1984 57.5509V57.1224H61.0845V54.5877H61.6752V57.1224H62.5472V57.5509H60.1984ZM61.3517 53.8775C61.3018 53.8779 61.2524 53.8694 61.2064 53.8525C61.1605 53.8357 61.119 53.8108 61.0845 53.7795C61.0108 53.7003 60.9755 53.5993 60.986 53.4979C60.9778 53.4004 61.013 53.3039 61.0845 53.2285C61.119 53.1972 61.1605 53.1723 61.2064 53.1555C61.2524 53.1386 61.3018 53.1301 61.3517 53.1305C61.404 53.1276 61.4564 53.1348 61.5051 53.1518C61.5538 53.1687 61.5975 53.1949 61.633 53.2285C61.7032 53.3045 61.7383 53.4005 61.7314 53.4979C61.7405 53.5992 61.7053 53.6997 61.633 53.7795C61.5975 53.8131 61.5538 53.8393 61.5051 53.8562C61.4564 53.8732 61.404 53.8804 61.3517 53.8775Z" fill="#0B3C5B"/>
<path d="M63.2927 57.0368C63.2117 56.8533 63.1459 56.6651 63.0958 56.4735C63.076 56.3066 63.076 56.1384 63.0958 55.9714C63.0743 55.8005 63.0743 55.6281 63.0958 55.4572C63.1311 55.2953 63.1926 55.1386 63.2786 54.9919C63.4456 54.8576 63.6417 54.7535 63.8553 54.6857C64.0621 54.6018 64.2882 54.5599 64.5163 54.5633C64.6425 54.5505 64.7699 54.5505 64.8961 54.5633C65.0187 54.5913 65.1368 54.6324 65.2477 54.6857C65.4596 54.8074 65.6297 54.9766 65.74 55.1755C65.8553 55.403 65.9129 55.6494 65.9088 55.898C65.9233 56.0242 65.9233 56.1514 65.9088 56.2776C65.8909 56.3987 65.8579 56.5178 65.8103 56.6327C65.8793 56.751 65.987 56.849 66.1198 56.9143C66.2715 56.9677 66.4344 56.9927 66.598 56.9878V57.551C66.3918 57.5575 66.1863 57.5284 65.9932 57.4653C65.8042 57.392 65.6361 57.2833 65.5009 57.147C65.3662 57.2807 65.1977 57.3855 65.0086 57.4531C64.8221 57.5224 64.6206 57.5558 64.4179 57.551H62.491V57.1225L63.2927 57.0368ZM63.6443 55.8123C63.6234 55.9996 63.6234 56.1882 63.6443 56.3755C63.6803 56.582 63.7465 56.7837 63.8412 56.9755H64.3194C64.4988 56.9818 64.6758 56.939 64.8258 56.8531C64.9697 56.7611 65.0777 56.6329 65.1352 56.4857C65.2134 56.2889 65.2515 56.0817 65.2477 55.8735C65.2552 55.6435 65.1707 55.4184 65.0086 55.2368C64.9469 55.1602 64.8647 55.0979 64.7691 55.0552C64.6736 55.0126 64.5675 54.9908 64.4601 54.9919C64.3165 54.9922 64.174 55.0129 64.0381 55.0531C63.9023 55.0962 63.7778 55.1628 63.6724 55.249C63.6594 55.3343 63.6594 55.4208 63.6724 55.5061C63.6619 55.6284 63.6619 55.7512 63.6724 55.8735L63.6443 55.8123Z" fill="#0B3C5B"/>
<path d="M66.5558 57.5506V57.122H67.5122V52.873H68.1029V57.5506H66.5558Z" fill="#0B3C5B"/>
<path d="M69.3828 52.7881H69.9735V57.5514H69.3828V52.7881Z" fill="#0B3C5B"/>
<path d="M75.0651 57.5514C74.7486 57.5625 74.4341 57.5035 74.1509 57.3799C73.9027 57.2711 73.6972 57.1006 73.5602 56.8901C73.4244 56.6505 73.3568 56.3859 73.3633 56.1187C73.3527 55.8209 73.4302 55.5258 73.5883 55.2616C73.7358 55.033 73.9554 54.846 74.2212 54.7228C74.5271 54.5908 74.8644 54.5237 75.2058 54.5269H75.6418V54.135H76.2185V57.0616H76.978V57.5514H75.0651ZM75.6418 57.0616V55.0167H75.2198C74.8801 55.0019 74.5471 55.1029 74.2915 55.2983C74.1778 55.407 74.0905 55.5347 74.0349 55.6736C73.9793 55.8125 73.9565 55.9597 73.968 56.1065C73.9503 56.2345 73.9659 56.3645 74.0138 56.4865C74.0618 56.6086 74.1407 56.7197 74.2448 56.8115C74.3489 56.9033 74.4755 56.9735 74.6151 57.0168C74.7547 57.0601 74.9037 57.0754 75.0511 57.0616H75.6418ZM74.7276 53.5595C74.6786 53.5622 74.6296 53.556 74.5835 53.5413C74.5375 53.5265 74.4955 53.5035 74.4603 53.4738C74.3759 53.4738 74.3478 53.3269 74.3478 53.1922C74.337 53.1445 74.3388 53.0953 74.3532 53.0484C74.3676 53.0014 74.3941 52.958 74.4308 52.9213C74.4674 52.8847 74.5132 52.8558 74.5647 52.837C74.6161 52.8181 74.6718 52.8098 74.7276 52.8126C74.7774 52.8122 74.8269 52.8207 74.8728 52.8375C74.9188 52.8544 74.9603 52.8792 74.9948 52.9105C75.0595 52.9937 75.0941 53.0918 75.0941 53.1922C75.0941 53.2926 75.0595 53.3907 74.9948 53.4738C74.9573 53.4992 74.9143 53.5177 74.8684 53.5282C74.8224 53.5387 74.7745 53.5411 74.7276 53.535V53.5595ZM75.8809 53.5595C75.8319 53.563 75.7826 53.5572 75.7364 53.5424C75.6902 53.5276 75.6483 53.5042 75.6137 53.4738C75.5406 53.3937 75.5009 53.2944 75.5009 53.1922C75.5009 53.0899 75.5406 52.9906 75.6137 52.9105C75.6491 52.8783 75.6917 52.8527 75.7388 52.8351C75.786 52.8176 75.8367 52.8086 75.8879 52.8086C75.9392 52.8086 75.9899 52.8176 76.037 52.8351C76.0842 52.8527 76.1267 52.8783 76.1622 52.9105C76.2336 52.9859 76.2689 53.0824 76.2607 53.1799C76.2675 53.2773 76.2324 53.3733 76.1622 53.4493C76.1065 53.4997 76.0313 53.5302 75.9512 53.535L75.8809 53.5595Z" fill="#0B3C5B"/>
<path d="M76.9218 57.5513V57.1227H77.9485C77.8498 57.0439 77.7645 56.9532 77.6953 56.8533C77.6231 56.7339 77.571 56.6061 77.5406 56.4737C77.5191 56.3233 77.5191 56.1711 77.5406 56.0207C77.533 55.7456 77.6005 55.4728 77.7375 55.2248C77.8626 55.0087 78.0583 54.8298 78.3001 54.7105C78.5571 54.5839 78.8488 54.5204 79.144 54.5268C79.3244 54.5275 79.504 54.5481 79.6785 54.588C79.8148 54.6154 79.947 54.6565 80.0723 54.7105L79.8895 55.1758L79.4956 55.0533H79.1018C78.92 55.0475 78.7399 55.0857 78.5814 55.1635C78.4374 55.2478 78.3249 55.367 78.2579 55.5064C78.1845 55.6913 78.1511 55.8864 78.1595 56.0819C78.1522 56.2733 78.1855 56.4643 78.2579 56.6452C78.3156 56.7924 78.4176 56.9235 78.5533 57.0248C78.6097 57.0707 78.6761 57.1062 78.7486 57.1294C78.8211 57.1525 78.8981 57.1627 78.9752 57.1595H80.1708V57.6493L76.9218 57.5513Z" fill="#0B3C5B"/>
<path d="M82.5618 57.037V57.5513H81.1553V52.8125H81.746V57.0615L82.5618 57.037Z" fill="#0B3C5B"/>
<path d="M82.4915 57.5513V57.1227H83.3775V54.588H83.9823V57.1227H84.8544V57.5513H82.4915ZM83.6589 53.8778C83.6069 53.8784 83.5552 53.8701 83.507 53.8533C83.4587 53.8365 83.4147 53.8115 83.3775 53.7798C83.3039 53.7007 83.2686 53.5997 83.2791 53.4982C83.2708 53.4007 83.3061 53.3042 83.3775 53.2288C83.4534 53.1659 83.5541 53.1309 83.6589 53.1309C83.7636 53.1309 83.8643 53.1659 83.9402 53.2288C83.9993 53.309 84.0288 53.403 84.0245 53.4982C84.0308 53.5974 84.0013 53.6959 83.9402 53.7798C83.903 53.8115 83.859 53.8365 83.8108 53.8533C83.7625 53.8701 83.7109 53.8784 83.6589 53.8778Z" fill="#0B3C5B"/>
<path d="M84.7841 57.5512V57.1227H85.5998V54.7839H86.1765V55.9349C86.291 55.6523 86.4572 55.3876 86.6688 55.1512C86.8321 54.9574 87.0436 54.7984 87.2876 54.6859C87.5166 54.5787 87.7731 54.5239 88.0331 54.5267C88.2469 54.5111 88.462 54.5383 88.6619 54.6062C88.8618 54.6742 89.0413 54.781 89.1864 54.9186C89.4819 55.2721 89.6171 55.7081 89.5662 56.1431V57.1472H90.4523V57.5512H84.7841ZM89.0036 57.0614V56.0819C89.0333 55.7796 88.933 55.4785 88.7223 55.2369C88.618 55.142 88.4906 55.0685 88.3494 55.0218C88.2083 54.9752 88.0569 54.9567 87.9065 54.9676C87.6757 54.9656 87.4499 55.0254 87.2595 55.139C87.0264 55.2818 86.83 55.4653 86.6828 55.6778C86.475 55.9534 86.3051 56.2493 86.1765 56.5594V57.0614H89.0036Z" fill="#0B3C5B"/>
<path d="M90.382 57.5506V57.122H91.2681V52.873H91.8728V57.5506H90.382Z" fill="#0B3C5B"/>
<path d="M96.5144 57.551C96.3448 57.5567 96.1758 57.5313 96.0183 57.4764C95.8608 57.4216 95.7183 57.3385 95.6001 57.2326C95.3589 56.9888 95.2376 56.672 95.2626 56.351C95.2561 56.2449 95.2561 56.1387 95.2626 56.0326C95.2792 55.9214 95.3027 55.811 95.3329 55.702C95.3329 55.5877 95.361 55.4898 95.4173 55.4081H95.9517C95.9517 55.5551 95.9517 55.7142 95.9517 55.8612C95.9517 56.0081 95.9517 56.1551 95.9517 56.302C95.9394 56.4966 95.9985 56.6896 96.1205 56.853C96.171 56.9194 96.2402 56.9734 96.3214 57.0098C96.4027 57.0462 96.4933 57.0639 96.5847 57.0612H98.9898V54.5265H99.5665V57.0612H100.453V57.551H96.5144ZM96.8378 54.5265C96.7396 54.5279 96.6443 54.4974 96.5706 54.4408C96.5303 54.4033 96.4994 54.3589 96.48 54.3103C96.4607 54.2618 96.4532 54.2103 96.4581 54.1591C96.4537 54.1061 96.4614 54.0529 96.4807 54.0024C96.5 53.952 96.5306 53.9054 96.5706 53.8653C96.6476 53.8137 96.7408 53.7838 96.8378 53.7795C96.8914 53.7771 96.9449 53.7859 96.9938 53.805C97.0427 53.8242 97.0857 53.8532 97.1191 53.8898C97.1906 53.9652 97.2258 54.0617 97.2176 54.1591C97.2244 54.2565 97.1893 54.3525 97.1191 54.4285C97.0822 54.4592 97.0375 54.4819 96.9886 54.4947C96.9397 54.5074 96.8881 54.5099 96.8378 54.502V54.5265ZM97.4145 53.6938C97.3701 53.6939 97.3262 53.6864 97.2852 53.6717C97.2441 53.657 97.2068 53.6354 97.1754 53.6081C97.1365 53.5748 97.1064 53.5346 97.087 53.4902C97.0675 53.4458 97.0593 53.3984 97.0629 53.351C97.0591 53.3017 97.0672 53.2523 97.0865 53.206C97.1059 53.1596 97.1362 53.1172 97.1754 53.0816C97.2411 53.031 97.3269 53.0046 97.4145 53.0081C97.5062 53.0062 97.5957 53.0322 97.6677 53.0816C97.7044 53.1182 97.7321 53.161 97.749 53.2074C97.766 53.2537 97.7718 53.3026 97.7661 53.351C97.7715 53.3975 97.7655 53.4444 97.7486 53.4887C97.7316 53.5331 97.704 53.5737 97.6677 53.6081C97.5934 53.6523 97.5044 53.6738 97.4145 53.6693V53.6938ZM98.0052 54.5265C97.9527 54.5314 97.8996 54.525 97.8506 54.508C97.8016 54.4909 97.7581 54.4636 97.7239 54.4285C97.6872 54.3919 97.6595 54.3491 97.6426 54.3027C97.6257 54.2564 97.6198 54.2075 97.6255 54.1591C97.615 54.0577 97.6503 53.9567 97.7239 53.8775C97.7601 53.8446 97.8039 53.8189 97.8524 53.802C97.9009 53.7851 97.953 53.7774 98.0052 53.7795C98.0587 53.7781 98.1118 53.7873 98.1605 53.8064C98.2093 53.8255 98.2524 53.854 98.2865 53.8898C98.3475 53.9692 98.3771 54.0638 98.3709 54.1591C98.3751 54.2543 98.3457 54.3484 98.2865 54.4285C98.249 54.4584 98.2043 54.4806 98.1555 54.4933C98.1068 54.506 98.0555 54.509 98.0052 54.502V54.5265Z" fill="#0B3C5B"/>
<path d="M100.298 57.5512V57.1226H101.592V54.5879H102.197V57.5512H100.298ZM100.734 58.7756C100.687 58.7774 100.641 58.7707 100.597 58.7559C100.553 58.7412 100.514 58.7187 100.481 58.6899C100.439 58.6534 100.407 58.6091 100.387 58.5603C100.368 58.5116 100.361 58.4596 100.368 58.4083C100.36 58.3551 100.366 58.301 100.386 58.2501C100.405 58.1992 100.438 58.1528 100.481 58.1144C100.514 58.0856 100.553 58.0632 100.597 58.0484C100.641 58.0337 100.687 58.0269 100.734 58.0287C100.786 58.0266 100.838 58.0342 100.887 58.0511C100.935 58.068 100.979 58.0938 101.015 58.1267C101.089 58.2058 101.124 58.3068 101.114 58.4083C101.122 58.5058 101.087 58.6023 101.015 58.6777C100.979 58.7106 100.935 58.7363 100.887 58.7532C100.838 58.7701 100.786 58.7778 100.734 58.7756ZM101.901 58.7756C101.849 58.7763 101.798 58.768 101.749 58.7512C101.701 58.7343 101.657 58.7094 101.62 58.6777C101.554 58.5997 101.519 58.5051 101.522 58.4083C101.517 58.3075 101.552 58.2084 101.62 58.1267C101.657 58.095 101.701 58.07 101.749 58.0532C101.798 58.0364 101.849 58.0281 101.901 58.0287C101.953 58.0266 102.006 58.0342 102.054 58.0511C102.103 58.068 102.146 58.0938 102.183 58.1267C102.249 58.2092 102.283 58.3077 102.281 58.4083C102.281 58.5048 102.247 58.5989 102.183 58.6777C102.146 58.7106 102.103 58.7363 102.054 58.7532C102.006 58.7701 101.953 58.7778 101.901 58.7756Z" fill="#0B3C5B"/>
<path d="M103.153 57.0364H105.389C105.362 56.8503 105.32 56.6662 105.263 56.4853C105.217 56.3181 105.156 56.1544 105.08 55.9955C104.956 55.718 104.785 55.458 104.574 55.2241C104.364 54.983 104.113 54.7723 103.828 54.5996L104.039 54.1221C104.39 54.2943 104.7 54.5229 104.953 54.7955C105.219 55.0881 105.433 55.4143 105.586 55.7629C105.761 56.1575 105.884 56.5684 105.952 56.9874H106.697V57.5506H103.153V57.0364Z" fill="#0B3C5B"/>
<path d="M106.627 57.5506V57.1221H109.44C109.368 57.0541 109.311 56.9753 109.271 56.8894C109.213 56.7674 109.171 56.64 109.145 56.5098C109.089 56.3371 109.046 56.1611 109.018 55.9833C108.993 55.8341 108.956 55.6868 108.906 55.5425C108.866 55.4341 108.809 55.3311 108.737 55.2364C108.674 55.1632 108.592 55.1044 108.498 55.0649C108.391 55.0454 108.281 55.0454 108.174 55.0649C108.015 55.048 107.855 55.048 107.696 55.0649C107.526 55.1124 107.361 55.1739 107.204 55.2486L106.965 54.82C107.144 54.7125 107.344 54.6337 107.555 54.5874C107.757 54.5381 107.965 54.5134 108.174 54.5139C108.3 54.5006 108.428 54.5006 108.554 54.5139C108.661 54.5351 108.765 54.568 108.863 54.6119C108.984 54.68 109.093 54.7625 109.187 54.8568C109.282 54.9717 109.353 55.1002 109.398 55.2364C109.467 55.42 109.519 55.6084 109.553 55.7996C109.577 55.9941 109.619 56.1865 109.679 56.3751C109.716 56.5217 109.768 56.6651 109.834 56.8037C109.878 56.9043 109.945 56.996 110.031 57.0731H110.481V57.5506H106.627Z" fill="#0B3C5B"/>
<path d="M110.481 57.5506V57.122H111.367V52.873H111.972V57.5506H110.481Z" fill="#0B3C5B"/>
<path d="M113.308 52.7881H113.927V57.5514H113.322L113.308 52.7881Z" fill="#0B3C5B"/>
<path d="M118.512 59.0209C118.294 59.0222 118.076 58.9975 117.865 58.9474C117.665 58.8907 117.475 58.8081 117.302 58.7025L117.57 58.2862C117.713 58.3596 117.863 58.4211 118.02 58.4698C118.182 58.5212 118.354 58.5461 118.526 58.5433C118.658 58.5489 118.789 58.5312 118.912 58.4912C119.036 58.4512 119.148 58.3898 119.243 58.3107C119.33 58.2305 119.396 58.1361 119.44 58.033C119.483 57.9299 119.503 57.8203 119.497 57.7107V57.5515H118.836C118.553 57.5599 118.272 57.5051 118.02 57.3923C117.8 57.2804 117.624 57.1142 117.513 56.9147C117.393 56.6672 117.335 56.3998 117.345 56.1311C117.332 55.837 117.41 55.5453 117.57 55.2862C117.717 55.0473 117.942 54.8514 118.217 54.7229C118.517 54.5892 118.85 54.5219 119.187 54.527H120.059V57.0617H120.608V57.5515H120.059V57.6984C120.069 57.9527 120.006 58.2051 119.876 58.4331C119.763 58.6326 119.574 58.7924 119.342 58.8862C119.083 58.9915 118.797 59.0379 118.512 59.0209ZM119.483 57.0372V54.9923H119.201C119.03 54.9789 118.857 54.9986 118.696 55.0501C118.534 55.1015 118.388 55.1834 118.267 55.2899C118.146 55.3963 118.054 55.5248 117.996 55.6659C117.939 55.8071 117.918 55.9576 117.935 56.1066C117.916 56.3587 117.995 56.6091 118.16 56.8168C118.253 56.8946 118.364 56.9544 118.485 56.9924C118.606 57.0304 118.735 57.0457 118.864 57.0372H119.483ZM118.076 53.6698H118.385C118.318 53.6217 118.261 53.5637 118.217 53.4984C118.197 53.426 118.197 53.3505 118.217 53.278C118.209 53.2011 118.222 53.1238 118.254 53.0517C118.285 52.9796 118.335 52.9147 118.4 52.8617C118.537 52.7608 118.712 52.7083 118.892 52.7147C119.048 52.7083 119.203 52.7378 119.342 52.8005L119.243 53.0821H119.089H118.906C118.859 53.0803 118.813 53.087 118.769 53.1018C118.725 53.1166 118.686 53.139 118.653 53.1678C118.616 53.1969 118.588 53.2332 118.571 53.2737C118.554 53.3142 118.548 53.3576 118.554 53.4005C118.532 53.4601 118.532 53.5245 118.554 53.5841C118.59 53.6303 118.638 53.6681 118.695 53.6943H118.793H119.004H119.215H119.37V54.0005H119.089H118.779H118.428H118.076V53.6698Z" fill="#0B3C5B"/>
<path d="M120.537 57.5506V57.122H121.423V52.873H122.028V57.5506H120.537Z" fill="#0B3C5B"/>
<path d="M124.349 59.0209C124.13 59.023 123.913 58.9983 123.702 58.9474C123.5 58.8933 123.31 58.8106 123.139 58.7025L123.407 58.2862C123.546 58.3572 123.692 58.4186 123.843 58.4698C124.005 58.5212 124.176 58.5461 124.349 58.5433C124.481 58.5512 124.613 58.5345 124.736 58.4944C124.86 58.4542 124.973 58.3916 125.066 58.3107C125.157 58.2328 125.228 58.1391 125.274 58.0356C125.32 57.9322 125.34 57.8214 125.334 57.7107V57.5515H124.672C124.389 57.561 124.108 57.5061 123.857 57.3923C123.634 57.2842 123.456 57.1169 123.35 56.9147C123.225 56.6681 123.163 56.4007 123.168 56.1311C123.16 55.836 123.242 55.5444 123.407 55.2862C123.553 55.0506 123.772 54.8555 124.04 54.7229C124.341 54.5924 124.673 54.5253 125.01 54.527H125.896V57.0617H126.445V57.5515H125.896V57.6984C125.898 57.9521 125.836 58.203 125.713 58.4331C125.595 58.6299 125.408 58.7886 125.179 58.8862C124.92 58.9915 124.634 59.0379 124.349 59.0209ZM125.319 57.0372V54.9923H125.038C124.868 54.9817 124.698 55.0023 124.538 55.053C124.378 55.1036 124.232 55.1831 124.11 55.2862C123.993 55.3958 123.902 55.525 123.844 55.6661C123.786 55.8071 123.762 55.957 123.772 56.1066C123.747 56.3592 123.827 56.6114 123.997 56.8168C124.087 56.8943 124.196 56.954 124.315 56.992C124.433 57.0301 124.56 57.0455 124.687 57.0372H125.319ZM123.913 53.6698H124.222C124.155 53.6217 124.098 53.5637 124.054 53.4984C124.035 53.4259 124.035 53.3506 124.054 53.278C124.049 53.2003 124.064 53.1226 124.098 53.0506C124.132 52.9786 124.184 52.9141 124.251 52.8617C124.387 52.7597 124.563 52.7071 124.743 52.7147C124.899 52.7083 125.054 52.7378 125.193 52.8005L125.08 53.0821H124.94H124.757C124.71 53.0803 124.664 53.087 124.62 53.1018C124.576 53.1166 124.537 53.139 124.504 53.1678C124.467 53.1969 124.439 53.2332 124.422 53.2737C124.405 53.3142 124.399 53.3576 124.405 53.4005C124.383 53.4601 124.383 53.5245 124.405 53.5841C124.441 53.6303 124.489 53.6681 124.546 53.6943H124.644H124.855H125.066H125.179V54.0005H124.898H124.588H124.236H123.885L123.913 53.6698Z" fill="#0B3C5B"/>
<path d="M126.374 57.5506V57.122H127.26V52.873H127.865V57.122H128.737V57.5506H126.374Z" fill="#0B3C5B"/>
<path d="M128.667 57.5506V57.122H129.553V52.873H130.144V57.5506H128.667Z" fill="#0B3C5B"/>
<path d="M131.494 52.7881H132.085V57.5514H131.494V52.7881Z" fill="#0B3C5B"/>
<path fill-rule="evenodd" clip-rule="evenodd" d="M46.1333 24.38C45.5145 26.0821 44.9378 27.7596 44.4315 29.4005C44.3392 29.7312 44.122 30.0254 43.8146 30.2358C43.5073 30.4462 43.1276 30.5606 42.7366 30.5606C42.3456 30.5606 41.966 30.4462 41.6586 30.2358C41.3513 30.0254 41.134 29.7312 41.0418 29.4005C40.5214 27.6739 39.9728 26.0331 39.3962 24.5025L33.4045 8.7678H20.9991V39.9923C5.52756 27.1596 7.74984 2.78004 34.389 0.869838C27.6821 0.66477 21.0688 2.28713 15.4715 5.51066C10.8791 8.09727 7.10446 11.6447 4.49266 15.8286C1.88086 20.0126 0.51517 24.6998 0.520401 29.4617C0.542135 34.5174 2.08771 39.4797 5.00265 43.8525C7.91758 48.2253 12.0998 51.8554 17.1312 54.3801C21.8008 56.7188 31.4916 59.8535 40.9715 54.8943C20.0145 57.3923 14.3463 45.3066 13.5165 41.6331C16.4969 44.1123 20.4234 45.5468 24.5435 45.6617C25.1783 45.6716 25.809 45.5701 26.3977 45.3632C26.9865 45.1563 27.5214 44.8482 27.9703 44.4573C28.4193 44.0664 28.7732 43.6008 29.0109 43.0882C29.2486 42.5756 29.3652 42.0266 29.3537 41.4739C29.3537 37.9964 29.2694 33.2576 29.2694 33.2576C29.2694 28.8005 29.1006 23.0331 28.763 15.9556C29.8329 20.2924 31.1853 24.5728 32.8137 28.776L38.1163 42.1229C38.4382 42.9398 39.0448 43.649 39.8515 44.1517C40.6583 44.6543 41.625 44.9253 42.6171 44.927C43.6227 44.9277 44.603 44.6524 45.4186 44.1402C46.2342 43.628 46.8436 42.905 47.1601 42.0739L52.3079 28.4086C53.7425 24.6453 55.1068 20.429 56.4008 15.7596C56.0351 22.1515 55.8523 28.2535 55.8523 34.0658V41.8045C55.8523 42.6229 56.2257 43.4078 56.8904 43.9865C57.5551 44.5651 58.4566 44.8903 59.3967 44.8903H60.5781C61.0448 44.8919 61.5072 44.8132 61.9388 44.6589C62.3705 44.5045 62.7629 44.2775 63.0935 43.9908C63.4241 43.7041 63.6864 43.3634 63.8654 42.9882C64.0445 42.613 64.1366 42.2108 64.1366 41.8045V8.74331H51.8297L46.1333 24.38Z" fill="url(#paint0_linear_121_953)"/>
<path fill-rule="evenodd" clip-rule="evenodd" d="M91.3102 9.40389C88.9423 8.91962 86.5121 8.70558 84.0808 8.76716H67.9763V41.8284C67.9763 42.2346 68.0685 42.6369 68.2475 43.0121C68.4265 43.3872 68.6888 43.728 69.0194 44.0147C69.35 44.3014 69.7424 44.5284 70.1741 44.6827C70.6057 44.8371 71.0681 44.9157 71.5348 44.9141H73.1382C74.0782 44.9141 74.9797 44.589 75.6444 44.0103C76.3091 43.4316 76.6826 42.6468 76.6826 41.8284V31.8365H85.642C87.1897 31.8555 88.7355 31.7365 90.2553 31.4814C92.2448 31.1637 94.1028 30.3951 95.6423 29.2529C97.0698 28.1465 98.191 26.773 98.9217 25.2355C99.6525 23.698 99.9739 22.0364 99.8618 20.3753C99.9529 17.9275 99.1717 15.5151 97.6254 13.4692C96.1562 11.4923 93.9118 10.0476 91.3102 9.40389ZM89.4396 24.4896C87.9814 25.3486 86.2289 25.7463 84.4746 25.6161H76.6826V15.4529H83.9964C85.7857 15.331 87.5765 15.6718 89.1442 16.4325C89.8794 16.8925 90.467 17.5088 90.8511 18.2225C91.2351 18.9363 91.4029 19.7238 91.3384 20.51C91.3851 21.2549 91.2387 21.9993 90.91 22.6882C90.5813 23.3771 90.0787 23.9928 89.4396 24.4896Z" fill="url(#paint1_linear_121_953)"/>
<path fill-rule="evenodd" clip-rule="evenodd" d="M132.661 32.1547C132.394 34.1506 130.313 35.6935 129.356 36.9302C127.823 38.9384 123.885 39.9425 120.537 39.3792C118.945 39.1471 117.433 38.6076 116.111 37.8003C114.79 36.993 113.692 35.9384 112.9 34.7139C111.407 32.3385 110.679 29.6565 110.79 26.9506C110.684 24.2761 111.388 21.6242 112.83 19.2608C113.575 17.9525 114.739 16.8598 116.181 16.1146C117.624 15.3693 119.283 15.0034 120.959 15.0608C122.164 15.0074 123.368 15.1885 124.482 15.591C125.596 15.9934 126.594 16.6071 127.401 17.3874C128.414 18.3792 130.214 19.5547 130.51 21.0608L136.853 20.5465C136.6 17.6567 136.15 15.6486 133.871 13.4812C132.277 11.9258 130.309 10.6957 128.106 9.87872C125.903 9.06171 123.521 8.67792 121.128 8.75471C118.563 8.66664 116.008 9.0833 113.653 9.9737C111.298 10.8641 109.204 12.2053 107.527 13.8976C104.063 17.5082 102.246 22.1019 102.422 26.8037C102.223 31.2315 103.733 35.5897 106.711 39.1833C108.34 41.0688 110.472 42.5805 112.923 43.5875C115.374 44.5945 118.069 45.0666 120.777 44.9629C126.459 44.9629 130.842 43.2976 133.927 39.967C136.313 37.3469 137.704 34.1462 137.908 30.8078L132.661 32.1547Z" fill="url(#paint2_linear_121_953)"/>
<path d="M166.741 19.0901C165.452 17.8843 163.881 16.9327 162.134 16.2991C160.388 15.6655 158.505 15.3646 156.614 15.4166C154.566 15.3361 152.523 15.6511 150.631 16.3392C148.739 17.0272 147.045 18.0712 145.672 19.3962C143.159 21.9747 141.867 25.2884 142.057 28.6656C141.888 32.1059 143.231 35.4729 145.812 38.0819C148.547 40.4495 152.224 41.8087 156.08 41.8771C159.935 41.9456 163.673 40.7179 166.516 38.4493C167.93 37.1438 169.026 35.6032 169.739 33.9199C170.452 32.2366 170.767 30.4453 170.665 28.6534C170.857 25.1398 169.447 21.7025 166.741 19.0901ZM161.115 34.8738C160.568 35.5013 159.856 36.0048 159.038 36.3416C158.22 36.6784 157.321 36.8386 156.417 36.8085C155.458 36.8341 154.505 36.6557 153.642 36.2887C152.78 35.9218 152.033 35.3772 151.466 34.7023C150.15 32.9243 149.524 30.8255 149.68 28.7146C149.54 26.5935 150.165 24.4873 151.466 22.6901C152.037 22.0214 152.779 21.4783 153.634 21.104C154.489 20.7298 155.432 20.5349 156.389 20.5349C157.346 20.5349 158.289 20.7298 159.144 21.104C159.999 21.4783 160.741 22.0214 161.312 22.6901C162.567 24.4573 163.166 26.518 163.028 28.5921C163.211 30.8182 162.522 33.0326 161.073 34.8738H161.115Z" fill="url(#paint3_linear_121_953)"/>
<path fill-rule="evenodd" clip-rule="evenodd" d="M171.593 38.0817C173.942 34.3226 169.779 31.4695 166.671 32.9022C163.562 34.3348 161.298 38.743 158.316 40.0042L157.697 40.2491C152.423 43.543 146.741 41.0573 144.153 36.1103C144.579 37.6133 145.333 39.0309 146.375 40.2858C148.026 42.0537 150.186 43.4098 152.634 44.2164C156.102 45.4338 159.968 45.4809 163.474 44.3487C166.981 43.2164 169.876 40.9861 171.593 38.094V38.0817Z" fill="url(#paint4_linear_121_953)"/>
<path fill-rule="evenodd" clip-rule="evenodd" d="M161.003 38.0573C154.265 44.3756 143.478 38.5593 142.901 31.3838C142.844 32.5742 142.981 33.7658 143.309 34.9226C143.812 36.7777 144.772 38.5156 146.122 40.0164C149.3 43.494 156.122 44.3144 161.003 38.0573Z" fill="url(#paint5_linear_121_953)"/>
<path fill-rule="evenodd" clip-rule="evenodd" d="M138.906 33.612C139.891 29.1548 134.687 27.4161 132 29.7426C129.314 32.0691 128.723 37.163 126.177 39.2691L125.629 39.6854C121.508 44.5099 114.827 43.5793 110.382 39.2936C111.37 40.6918 112.66 41.9102 114.18 42.8814C116.498 44.2162 119.183 44.9896 121.958 45.1222C124.524 45.2888 127.099 44.9193 129.469 44.0446C131.896 43.1031 134.024 41.6613 135.668 39.8436C137.313 38.026 138.424 35.8872 138.906 33.612Z" fill="url(#paint6_linear_121_953)"/>
<path fill-rule="evenodd" clip-rule="evenodd" d="M128.161 36.5507C123.66 44.8405 110.608 41.9629 107.373 34.8486C107.745 36.0712 108.323 37.239 109.088 38.3139C110.287 40.0521 111.904 41.5434 113.828 42.6854C118.315 45.3058 125.488 44.265 128.161 36.5507Z" fill="url(#paint7_linear_121_953)"/>
<path fill-rule="evenodd" clip-rule="evenodd" d="M137.12 17.4366C139.244 21.5876 134.574 24.3182 131.41 22.5672C128.245 20.8162 126.276 15.9794 123.252 14.4366L122.605 14.1305C117.345 10.2611 111.086 12.4774 107.865 17.5223C108.481 15.9621 109.436 14.5196 110.678 13.2733C112.606 11.5274 115.033 10.2596 117.71 9.59984C121.502 8.55838 125.604 8.78864 129.211 10.2454C132.818 11.7022 135.669 14.2802 137.204 17.4733L137.12 17.4366Z" fill="url(#paint8_linear_121_953)"/>
<path fill-rule="evenodd" clip-rule="evenodd" d="M125.882 16.6903C119.356 9.5025 107.387 14.878 106.078 22.4454C106.127 21.1944 106.388 19.9565 106.852 18.7719C107.571 16.8389 108.761 15.0638 110.34 13.5678C114.025 10.078 121.283 9.71066 125.882 16.6903Z" fill="url(#paint9_linear_121_953)"/>
<path fill-rule="evenodd" clip-rule="evenodd" d="M4.95085 18.6123C2.20174 23.279 1.17104 28.5699 1.99903 33.7647C2.82702 38.9596 5.47349 43.8062 9.57825 47.645C9.57825 47.645 0.182802 35.9143 4.95085 18.6123Z" fill="url(#paint10_linear_121_953)"/>
<path d="M54.9802 15.4531L45.3738 41.596" stroke="url(#paint11_linear_121_953)" stroke-width="0.5" stroke-linecap="round" stroke-linejoin="round"/>
<path d="M69.7345 9.84473V42.2325" stroke="url(#paint12_linear_121_953)" stroke-width="0.5" stroke-linecap="round" stroke-linejoin="round"/>
<path d="M62.3926 9.84473V42.2325" stroke="url(#paint13_linear_121_953)" stroke-width="0.5" stroke-linecap="round" stroke-linejoin="round"/>
<path d="M22.912 9.84473V42.2325" stroke="url(#paint14_linear_121_953)" stroke-width="0.5" stroke-linecap="round" stroke-linejoin="round"/>
<path d="M104.18 23.8281C104.18 23.8281 101.845 30.3547 107.373 37.6893" stroke="url(#paint15_linear_121_953)" stroke-width="0.5" stroke-linecap="round" stroke-linejoin="round"/>
<path d="M145.77 21.6855C145.77 21.6855 140.791 29.5468 146.487 36.808" stroke="url(#paint16_linear_121_953)" stroke-width="0.56" stroke-linecap="round" stroke-linejoin="round"/>
<path d="M168.612 30.4411C168.612 30.4411 170.018 23.0942 163.365 18.8574" stroke="url(#paint17_linear_121_953)" stroke-width="1.12" stroke-linecap="round" stroke-linejoin="round"/>
</g>
<defs>
<linearGradient id="paint0_linear_121_953" x1="17.4969" y1="54.5637" x2="45.2738" y2="-0.710883" gradientUnits="userSpaceOnUse">
<stop stop-color="#E6BB23"/>
<stop offset="0.24" stop-color="#EDA221"/>
<stop offset="0.47" stop-color="#F18623"/>
<stop offset="0.72" stop-color="#BF2139"/>
<stop offset="1" stop-color="#7F1621"/>
</linearGradient>
<linearGradient id="paint1_linear_121_953" x1="66.4151" y1="42.7957" x2="84.9792" y2="5.87056" gradientUnits="userSpaceOnUse">
<stop stop-color="#E6BB23"/>
<stop offset="0.24" stop-color="#EDA221"/>
<stop offset="0.47" stop-color="#F18623"/>
<stop offset="0.72" stop-color="#BF2139"/>
<stop offset="1" stop-color="#7F1621"/>
</linearGradient>
<linearGradient id="paint2_linear_121_953" x1="110.411" y1="42.367" x2="127.056" y2="9.23673" gradientUnits="userSpaceOnUse">
<stop stop-color="#E6BB23"/>
<stop offset="0.24" stop-color="#EDA221"/>
<stop offset="0.47" stop-color="#F18623"/>
<stop offset="0.72" stop-color="#BF2139"/>
<stop offset="1" stop-color="#7F1621"/>
</linearGradient>
<linearGradient id="paint3_linear_121_953" x1="142.029" y1="28.6656" x2="170.637" y2="28.6656" gradientUnits="userSpaceOnUse">
<stop stop-color="#70C7DB"/>
<stop offset="0.5" stop-color="#006FAC"/>
<stop offset="1" stop-color="#262E63"/>
</linearGradient>
<linearGradient id="paint4_linear_121_953" x1="158.232" y1="32.5226" x2="158.232" y2="45.1715" gradientUnits="userSpaceOnUse">
<stop stop-color="#70C7DB"/>
<stop offset="0.5" stop-color="#006FAC"/>
<stop offset="1" stop-color="#262E63"/>
</linearGradient>
<linearGradient id="paint5_linear_121_953" x1="142.901" y1="37.0409" x2="161.003" y2="37.0409" gradientUnits="userSpaceOnUse">
<stop stop-color="#70C7DB"/>
<stop offset="0.5" stop-color="#006FAC"/>
<stop offset="1" stop-color="#262E63"/>
</linearGradient>
<linearGradient id="paint6_linear_121_953" x1="123.312" y1="31.7189" x2="126.926" y2="44.813" gradientUnits="userSpaceOnUse">
<stop stop-color="#E6BB23"/>
<stop offset="0.24" stop-color="#EDA221"/>
<stop offset="0.47" stop-color="#F18623"/>
<stop offset="0.72" stop-color="#BF2139"/>
<stop offset="1" stop-color="#7F1621"/>
</linearGradient>
<linearGradient id="paint7_linear_121_953" x1="109.452" y1="40.5795" x2="127.261" y2="34.0945" gradientUnits="userSpaceOnUse">
<stop stop-color="#E6BB23"/>
<stop offset="0.24" stop-color="#EDA221"/>
<stop offset="0.47" stop-color="#F18623"/>
<stop offset="0.72" stop-color="#BF2139"/>
<stop offset="1" stop-color="#7F1621"/>
</linearGradient>
<linearGradient id="paint8_linear_121_953" x1="121.963" y1="20.633" x2="122.899" y2="7.19188" gradientUnits="userSpaceOnUse">
<stop stop-color="#E6BB23"/>
<stop offset="0.24" stop-color="#EDA221"/>
<stop offset="0.47" stop-color="#F18623"/>
<stop offset="0.72" stop-color="#BF2139"/>
<stop offset="1" stop-color="#7F1621"/>
</linearGradient>
<linearGradient id="paint9_linear_121_953" x1="106.116" y1="14.7115" x2="125.304" y2="16.4747" gradientUnits="userSpaceOnUse">
<stop stop-color="#E6BB23"/>
<stop offset="0.24" stop-color="#EDA221"/>
<stop offset="0.47" stop-color="#F18623"/>
<stop offset="0.72" stop-color="#BF2139"/>
<stop offset="1" stop-color="#7F1621"/>
</linearGradient>
<linearGradient id="paint10_linear_121_953" x1="-1.43468" y1="22.4939" x2="12.7187" y2="45.7223" gradientUnits="userSpaceOnUse">
<stop stop-color="#E78B05"/>
<stop offset="1" stop-color="#FFF4D4"/>
</linearGradient>
<linearGradient id="paint11_linear_121_953" x1="42.2935" y1="40.4082" x2="55.0021" y2="15.1231" gradientUnits="userSpaceOnUse">
<stop stop-color="#E89600"/>
<stop offset="1" stop-color="#FFF4D4"/>
</linearGradient>
<linearGradient id="paint12_linear_121_953" x1="-nan" y1="-nan" x2="-nan" y2="-nan" gradientUnits="userSpaceOnUse">
<stop stop-color="#EDB000"/>
<stop offset="1" stop-color="#FFF4D4"/>
</linearGradient>
<linearGradient id="paint13_linear_121_953" x1="62.3926" y1="26.0386" x2="63.3926" y2="26.0386" gradientUnits="userSpaceOnUse">
<stop stop-color="#E3720F"/>
<stop offset="1" stop-color="#FFF4D4"/>
</linearGradient>
<linearGradient id="paint14_linear_121_953" x1="-nan" y1="-nan" x2="-nan" y2="-nan" gradientUnits="userSpaceOnUse">
<stop stop-color="#E89500"/>
<stop offset="1" stop-color="#FFF4D4"/>
</linearGradient>
<linearGradient id="paint15_linear_121_953" x1="100.86" y1="26.0077" x2="109.205" y2="36.6633" gradientUnits="userSpaceOnUse">
<stop stop-color="#E89102"/>
<stop offset="0.18" stop-color="#EEAA38"/>
<stop offset="0.39" stop-color="#F4C46F"/>
<stop offset="0.58" stop-color="#F9D99B"/>
<stop offset="0.75" stop-color="#FCE8BA"/>
<stop offset="0.9" stop-color="#FEF1CD"/>
<stop offset="1" stop-color="#FFF4D4"/>
</linearGradient>
<linearGradient id="paint16_linear_121_953" x1="141.691" y1="32.9753" x2="149.382" y2="24.4497" gradientUnits="userSpaceOnUse">
<stop stop-color="#08A8CB"/>
<stop offset="0.94" stop-color="#EAF6FC"/>
</linearGradient>
<linearGradient id="paint17_linear_121_953" x1="160.524" y1="22.2248" x2="170.792" y2="28.2279" gradientUnits="userSpaceOnUse">
<stop stop-color="#B3DFF0"/>
<stop offset="0.5" stop-color="#006FAC"/>
<stop offset="1" stop-color="#262E63"/>
</linearGradient>
<clipPath id="clip0_121_953">
<rect width="173" height="60" fill="white"/>
</clipPath>
</defs>
</svg>
