<svg width="48" height="48" viewBox="0 0 48 48" fill="none" xmlns="http://www.w3.org/2000/svg">
<g clip-path="url(#clip0_2_601)">
<path d="M17.6511 34.3311L12.6415 28.4745C12.3934 28.222 12.0958 28.0706 11.7488 28.0202C11.4014 28.0202 11.0544 28.1213 10.8063 28.3738C10.36 28.7777 10.2607 29.4342 10.5088 29.9388L10.6575 30.2417C11.4014 31.7563 12.2944 33.2203 13.3358 34.5835L14.179 35.7446C14.3278 35.9464 14.3772 36.1485 14.3278 36.401C14.2783 36.6535 14.179 36.8553 13.9804 36.9564C13.7821 37.1078 13.5835 37.1582 13.3355 37.1078C13.0874 37.0575 12.8891 36.9564 12.7898 36.7543L11.8972 35.5932C10.8554 34.1292 9.86347 32.6145 9.06976 30.9988L8.92099 30.6959C8.27607 29.4338 8.57361 27.9191 9.61538 27.0105C9.71468 26.9601 9.76416 26.8591 9.86346 26.8087L8.1276 22.214C7.92935 21.6586 7.38373 21.3054 6.83806 21.2546C6.39173 21.2043 5.99489 21.3557 5.69732 21.6586C5.39976 21.9614 5.20117 22.3654 5.20117 22.8197L5.39943 34.886C5.39943 35.9967 5.84576 37.1075 6.63945 37.9153L11.1034 42.5601H18.6923L18.5436 36.6532C18.5436 35.795 18.1965 34.9871 17.6509 34.331L17.6511 34.3311Z" fill="#49ACE9"/>
<path d="M11.2029 47.2052C11.2029 47.6091 11.5503 47.9623 11.9468 47.9623H17.9981C18.395 47.9623 18.742 47.6087 18.742 47.2052V44.1758H11.2029L11.2029 47.2052Z" fill="#49ACE9"/>
<path d="M42.3526 21.6586C42.055 21.3557 41.6087 21.2043 41.2118 21.2546C40.6662 21.305 40.1206 21.7089 39.9223 22.214L38.0872 26.909C38.1865 26.9594 38.2359 27.0101 38.3352 27.1108C39.377 28.0194 39.6248 29.5341 39.0296 30.7963L38.831 31.0491C38.0373 32.6649 37.0948 34.1792 36.0036 35.6435L35.1109 36.8046C34.9622 37.0064 34.7636 37.1075 34.5653 37.1582C34.3172 37.2085 34.119 37.1078 33.9204 37.0067C33.7221 36.8553 33.6228 36.6532 33.573 36.4514C33.5235 36.1989 33.573 35.9971 33.7218 35.7949L34.6144 34.6338C35.6064 33.2706 36.4994 31.8067 37.2927 30.292L37.4415 29.9891C37.6896 29.4338 37.5903 28.828 37.1439 28.4241C36.8959 28.1716 36.5488 28.0706 36.2014 28.0706C35.8541 28.1209 35.5565 28.2723 35.3088 28.5249L30.349 34.331C29.8034 34.9874 29.4564 35.7949 29.4564 36.6536L29.3076 42.5101L36.8966 42.5097L41.3605 37.865C42.1542 37.0571 42.6005 35.9971 42.6005 34.8356L42.7988 22.7693C42.7988 22.3654 42.65 21.9618 42.3525 21.6586L42.3526 21.6586Z" fill="#49ACE9"/>
<path d="M29.3074 47.2052C29.3074 47.6091 29.6548 47.9623 30.0513 47.9623H36.1026C36.4994 47.9623 36.8465 47.6087 36.8465 47.2052V44.1758H29.3074L29.3074 47.2052Z" fill="#49ACE9"/>
<path d="M34.6642 20.4982C34.6642 14.4902 29.9023 9.64355 23.9999 9.64355C18.0973 9.64355 13.3357 14.4904 13.3357 20.4982C13.3357 26.5062 18.0976 31.3528 23.9999 31.3528C29.9025 31.3531 34.6642 26.5063 34.6642 20.4982ZM29.8033 19.4381L27.6208 21.4574C27.472 21.5585 27.4225 21.7603 27.472 21.9624L28.0671 24.941C28.2159 25.6478 27.472 26.2032 26.8271 25.8496L24.2478 24.3349C24.099 24.2339 23.9004 24.2339 23.7516 24.3349L21.1723 25.8496C20.5273 26.2032 19.7834 25.6478 19.9322 24.941L20.528 21.9624C20.5775 21.811 20.528 21.6089 20.3793 21.5081L18.1967 19.4888C17.6511 18.9838 17.9486 18.1256 18.6431 18.0249L21.6193 17.6713C21.8175 17.6713 21.9667 17.5199 22.0161 17.3685L23.2562 14.5916C23.5537 13.9352 24.4962 13.9352 24.7937 14.5916L26.0337 17.3685C26.0832 17.5199 26.2818 17.621 26.4306 17.6713L29.4068 18.0249C30.0514 18.0749 30.349 18.9331 29.8033 19.4382L29.8033 19.4381Z" fill="#49ACE9"/>
<path d="M24.0001 6.71481C24.8433 6.71481 25.4882 6.00801 25.4882 5.20012V1.51469C25.4882 0.656461 24.7938 0 24.0001 0C23.2064 0 22.512 0.706794 22.512 1.51469V5.14972C22.512 6.00795 23.1569 6.71472 24.0001 6.71472V6.71481Z" fill="#49ACE9"/>
<path d="M30.3488 8.32994C30.5969 8.43101 30.7952 8.53173 31.0432 8.53173C31.5889 8.53173 32.085 8.22887 32.3825 7.72387L34.0689 4.49273C34.4657 3.73557 34.1682 2.82667 33.424 2.42269C32.6801 2.01875 31.7871 2.32161 31.3902 3.07912L29.7039 6.31026C29.3569 7.01742 29.6049 7.92637 30.3488 8.32991L30.3488 8.32994Z" fill="#49ACE9"/>
<path d="M15.6174 7.67404C15.8654 8.17905 16.4111 8.48191 16.9567 8.48191C17.2048 8.48191 17.4528 8.43155 17.6511 8.28012C18.395 7.87618 18.643 6.96756 18.296 6.21008L16.5598 3.02933C16.1629 2.27218 15.2702 2.01969 14.5261 2.3729C13.7822 2.77684 13.5341 3.68546 13.8811 4.44294L15.6174 7.67404Z" fill="#49ACE9"/>
</g>
<defs>
<clipPath id="clip0_2_601">
<rect width="48" height="48" fill="white"/>
</clipPath>
</defs>
</svg>
