<svg width="32" height="32" viewBox="0 0 32 32" fill="none" xmlns="http://www.w3.org/2000/svg">
<path d="M19.1333 12.5333L17.9333 14.4666L18.8667 15.4L20.8 14.2L21.4667 14.4666L22 16.6666H23.3333L23.8667 14.4666L24.5333 14.2L26.4667 15.4L27.4 14.4666L26.2 12.5333C26.3171 12.3234 26.4067 12.0994 26.4667 11.8666L28.6667 11.3333V9.99996L26.4667 9.46663C26.4067 9.23388 26.3171 9.00982 26.2 8.79996L27.4 6.86663L26.4667 5.93329L24.5333 7.13329L23.8667 6.86663L23.3333 4.66663H22L21.4667 6.86663L20.8 7.13329L18.8667 5.93329L17.9333 6.86663L19.1333 8.79996C19.0162 9.00982 18.9266 9.23388 18.8667 9.46663L16.6667 9.99996V11.3333L18.8667 11.8666C18.9266 12.0994 19.0162 12.3234 19.1333 12.5333ZM22.6667 9.33329C22.9304 9.33329 23.1882 9.41149 23.4074 9.558C23.6267 9.70451 23.7976 9.91275 23.8985 10.1564C23.9994 10.4 24.0258 10.6681 23.9744 10.9267C23.9229 11.1854 23.7959 11.423 23.6095 11.6094C23.423 11.7959 23.1854 11.9229 22.9268 11.9743C22.6681 12.0258 22.4 11.9994 22.1564 11.8985C21.9128 11.7975 21.7045 11.6267 21.558 11.4074C21.4115 11.1881 21.3333 10.9303 21.3333 10.6666C21.3333 10.313 21.4738 9.97387 21.7238 9.72382C21.9739 9.47377 22.313 9.33329 22.6667 9.33329Z" fill="#F18723"/>
<path d="M28.1333 19.1333C27.763 18.8346 27.3351 18.6153 26.8763 18.4892C26.4175 18.363 25.9377 18.3326 25.4667 18.4L18.8667 19.6C18.8701 19.1889 18.7891 18.7815 18.6285 18.403C18.468 18.0246 18.2313 17.6831 17.9333 17.4L13.2 12.6666H3.33333C2.97971 12.6666 2.64057 12.8071 2.39052 13.0572C2.14048 13.3072 2 13.6463 2 14V20C2 20.3536 2.14048 20.6927 2.39052 20.9428C2.64057 21.1928 2.97971 21.3333 3.33333 21.3333H5.53333L13 27.4L26.6 24.9333C27.2144 24.8133 27.7827 24.5227 28.2396 24.0948C28.6966 23.6669 29.0238 23.1189 29.1838 22.5137C29.3438 21.9084 29.3302 21.2704 29.1444 20.6725C28.9586 20.0747 28.6082 19.5412 28.1333 19.1333ZM26.1333 22.3333L13.6667 24.6L6.66667 18.8V15.3333H12.1333L16.0667 19.2666C16.1192 19.3192 16.1609 19.3815 16.1893 19.4501C16.2177 19.5188 16.2324 19.5923 16.2324 19.6666C16.2324 19.7409 16.2177 19.8145 16.1893 19.8831C16.1609 19.9517 16.1192 20.0141 16.0667 20.0666C16.0141 20.1192 15.9518 20.1608 15.8831 20.1893C15.8145 20.2177 15.741 20.2323 15.6667 20.2323C15.5924 20.2323 15.5188 20.2177 15.4502 20.1893C15.3816 20.1608 15.3192 20.1192 15.2667 20.0666L12.9333 17.7333C12.6766 17.5407 12.359 17.4472 12.0388 17.47C11.7187 17.4927 11.4175 17.6302 11.1905 17.8572C10.9636 18.0841 10.8261 18.3853 10.8034 18.7054C10.7806 19.0256 10.8741 19.3432 11.0667 19.6L13.4 21.9333C13.6908 22.2397 14.043 22.4812 14.4337 22.642C14.8243 22.8029 15.2444 22.8794 15.6667 22.8666C16.0748 22.8648 16.48 22.7973 16.8667 22.6666L25.9333 21.0666C26.1217 21.0402 26.3129 21.088 26.4667 21.2C26.5321 21.2584 26.5839 21.3305 26.6185 21.4111C26.653 21.4917 26.6695 21.5789 26.6667 21.6666C26.6698 21.8226 26.6182 21.9747 26.5207 22.0965C26.4233 22.2183 26.2862 22.3021 26.1333 22.3333Z" fill="#F18723"/>
</svg>
