<svg width="32" height="32" viewBox="0 0 32 32" fill="none" xmlns="http://www.w3.org/2000/svg">
<path d="M16.6125 1.12817C16.3188 3.53817 16.3188 3.53817 14.2125 4.74817C16.625 5.0438 16.625 5.0438 17.8375 7.15005C18.1313 4.7388 18.1313 4.7388 20.2375 3.52817C17.825 3.23255 17.825 3.23255 16.6125 1.12817ZM29.5063 2.41505C29.2688 2.4863 28.9438 2.61005 28.5563 2.79255C27.675 3.20317 26.5188 3.85817 25.3125 4.60505C22.9063 6.0963 20.2813 8.00005 19.3063 9.0063L19.2563 9.0563L16.6313 10.5813C16.8563 10.7188 17.0688 10.8688 17.2875 11.0375C18.0875 11.6563 18.8688 12.45 19.2875 12.8438L18.525 13.6688C18.0563 13.2313 17.3125 12.475 16.6 11.925C16.25 11.6563 15.9 11.4375 15.6625 11.3438C15.525 11.2938 15.4563 11.2813 15.425 11.2813L15.375 11.3125L3.78563 22.8876C3.995 22.9188 4.20625 22.975 4.41625 23.0438C5.34438 23.35 6.325 23.975 7.21875 24.8688C8.10625 25.7563 8.73125 26.7376 9.04375 27.6625C9.08125 27.7813 9.11875 27.9 9.14375 28.025L20.6 16.5688L22.85 12.9063L22.8938 12.8563C24.0063 11.75 25.9 9.0813 27.3688 6.65005C28.1063 5.43692 28.7438 4.2713 29.1375 3.3888C29.3188 2.9888 29.4375 2.65692 29.5063 2.41505ZM27.375 9.57505C27.6313 11.5313 27.6313 11.5313 26.225 12.9188C28.1875 12.6563 28.1875 12.6563 29.5688 14.0563C29.3063 12.1063 29.3063 12.1063 30.7 10.7188C28.7563 10.975 28.7563 10.975 27.375 9.57505ZM5.34188 11.5875C4.315 13.475 4.315 13.475 2.19125 13.7938C4.0775 14.825 4.0775 14.825 4.3975 16.9438C5.42438 15.0625 5.42438 15.0625 7.54375 14.7375C5.66 13.7063 5.66 13.7063 5.34188 11.5875ZM26.1563 15.0375C24.5875 18.2875 24.5875 18.2875 21.0375 18.9813C24.2938 20.5501 24.2938 20.5501 24.9875 24.1C26.5563 20.8438 26.5563 20.8438 30.1 20.1563C26.85 18.5813 26.85 18.5813 26.1563 15.0375ZM3.27375 23.9688C2.99813 23.9688 2.8025 24.0438 2.68813 24.1563C2.485 24.3625 2.40563 24.8188 2.63938 25.5313C2.87813 26.2375 3.4175 27.1063 4.195 27.8876C4.97313 28.6625 5.83938 29.2001 6.55 29.4375C7.2625 29.675 7.71875 29.5938 7.925 29.3938C8.125 29.1875 8.20625 28.7313 7.975 28.0188C7.73125 27.3125 7.19375 26.4438 6.4125 25.6688C5.63625 24.8876 4.77 24.35 4.0625 24.1125C3.75125 24.0063 3.48813 23.9688 3.27375 23.9688ZM13.6563 25.7438C13.8438 27.3188 13.8438 27.3188 12.6938 28.425C14.275 28.2313 14.275 28.2313 15.3813 29.3813C15.1938 27.8001 15.1938 27.8001 16.3313 26.7001C14.7563 26.8876 14.7563 26.8875 13.6563 25.7438ZM4.3325 26.3125C4.46495 26.3202 4.63536 26.3841 4.82244 26.4964C5.00952 26.6086 5.20498 26.7643 5.38438 26.9438C5.62592 27.1855 5.82134 27.4535 5.92783 27.6889C6.03432 27.9244 6.04319 28.1082 5.9525 28.2001C5.8609 28.2914 5.67689 28.2827 5.44095 28.1761C5.20502 28.0694 4.93647 27.8735 4.69438 27.6313C4.45284 27.3896 4.25741 27.1216 4.15092 26.8862C4.04443 26.6507 4.03556 26.4669 4.12625 26.375C4.17232 26.3288 4.24246 26.3076 4.3325 26.3125Z" fill="#F18723"/>
</svg>
