<svg width="32" height="32" viewBox="0 0 32 32" fill="none" xmlns="http://www.w3.org/2000/svg">
<path d="M22.6266 16.3334V22.3334C22.6266 27.3334 20.6266 29.3334 15.6266 29.3334H9.62665C4.62665 29.3334 2.62665 27.3334 2.62665 22.3334V16.3334C2.62665 11.3334 4.62665 9.33337 9.62665 9.33337H15.6266C20.6266 9.33337 22.6266 11.3334 22.6266 16.3334Z" stroke="#F18723" stroke-width="3.75" stroke-linecap="round" stroke-linejoin="round"/>
<path d="M29.2933 7.79996V12.2C29.2933 15.8666 27.8266 17.3333 24.16 17.3333H22.6266V16.3333C22.6266 11.3333 20.6266 9.33329 15.6266 9.33329H14.6266V7.79996C14.6266 4.13329 16.0933 2.66663 19.76 2.66663H24.16C27.8266 2.66663 29.2933 4.13329 29.2933 7.79996Z" stroke="#F18723" stroke-width="3.75" stroke-linecap="round" stroke-linejoin="round"/>
</svg>
