<svg width="32" height="32" viewBox="0 0 32 32" fill="none" xmlns="http://www.w3.org/2000/svg">
<path d="M25.32 9.36004C25.3925 9.54797 25.5201 9.70963 25.686 9.82383C25.852 9.93802 26.0486 9.99944 26.25 10C26.3733 9.9991 26.4953 9.97536 26.61 9.93004C26.8562 9.83396 27.0543 9.64435 27.1611 9.40263C27.2679 9.16091 27.2747 8.88674 27.18 8.64004C26.7174 7.45517 26.0693 6.35139 25.26 5.37004C25.0862 5.1842 24.8481 5.07159 24.5942 5.05515C24.3403 5.03871 24.0897 5.11968 23.8934 5.28157C23.6971 5.44345 23.5699 5.67407 23.5377 5.92647C23.5054 6.17886 23.5706 6.43404 23.72 6.64004C24.3939 7.45631 24.934 8.3744 25.32 9.36004ZM22 5.00004C22.2652 5.00004 22.5196 4.89468 22.7071 4.70714C22.8946 4.51961 23 4.26525 23 4.00004C22.9956 3.86558 22.9641 3.7334 22.9074 3.6114C22.8507 3.4894 22.7699 3.3801 22.67 3.29004C22.5848 3.19758 22.4811 3.124 22.3657 3.07405C22.2503 3.0241 22.1257 2.99889 22 3.00004C21.7348 3.00004 21.4804 3.10539 21.2929 3.29293C21.1054 3.48047 21 3.73482 21 4.00004C21.0039 4.14435 21.039 4.28611 21.1028 4.41557C21.1667 4.54504 21.2578 4.65914 21.37 4.75004C21.5445 4.90417 21.7673 4.99258 22 5.00004ZM9 13C9 14.3845 9.41054 15.7379 10.1797 16.889C10.9489 18.0402 12.0421 18.9374 13.3212 19.4672C14.6003 19.997 16.0078 20.1356 17.3656 19.8655C18.7235 19.5954 19.9708 18.9288 20.9497 17.9498C21.9287 16.9708 22.5954 15.7235 22.8655 14.3657C23.1356 13.0078 22.997 11.6003 22.4672 10.3213C21.9373 9.04217 21.0401 7.94892 19.889 7.17975C18.7378 6.41058 17.3845 6.00004 16 6.00004C14.1435 6.00004 12.363 6.73754 11.0503 8.05029C9.7375 9.36305 9 11.1435 9 13ZM21 13C21 13.9889 20.7068 14.9556 20.1573 15.7779C19.6079 16.6001 18.827 17.241 17.9134 17.6194C16.9998 17.9979 15.9945 18.0969 15.0245 17.904C14.0546 17.711 13.1637 17.2348 12.4645 16.5356C11.7652 15.8363 11.289 14.9454 11.0961 13.9755C10.9031 13.0056 11.0022 12.0003 11.3806 11.0866C11.759 10.173 12.3999 9.3921 13.2221 8.84269C14.0444 8.29328 15.0111 8.00004 16 8.00004C17.3261 8.00004 18.5979 8.52682 19.5355 9.4645C20.4732 10.4022 21 11.674 21 13Z" fill="#F18723"/>
<path d="M30.71 26.29L25.16 20.74C26.9957 18.579 28.0024 15.8354 28 13C28 12.7348 27.8947 12.4804 27.7071 12.2929C27.5196 12.1054 27.2652 12 27 12C26.7348 12 26.4804 12.1054 26.2929 12.2929C26.1054 12.4804 26 12.7348 26 13C25.9988 14.626 25.601 16.2271 24.8413 17.6647C24.0815 19.1023 22.9827 20.3329 21.64 21.25L20.64 21.85C19.2111 22.6032 17.6202 22.9968 16.005 22.9968C14.3898 22.9968 12.7989 22.6032 11.37 21.85L10.37 21.25C8.4221 19.908 7.01297 17.9189 6.39297 15.6362C5.77296 13.3535 5.98223 10.9248 6.98359 8.78181C7.98495 6.63878 9.71357 4.9201 11.8623 3.9311C14.0111 2.94211 16.4409 2.74684 18.72 3.37999C18.8493 3.42696 18.9869 3.44674 19.1242 3.4381C19.2615 3.42946 19.3956 3.39258 19.518 3.32977C19.6404 3.26696 19.7485 3.17957 19.8356 3.07307C19.9226 2.96657 19.9868 2.84325 20.0241 2.71082C20.0613 2.57839 20.0708 2.43969 20.052 2.30341C20.0332 2.16713 19.9865 2.0362 19.9148 1.9188C19.8431 1.80139 19.7479 1.70005 19.6353 1.62111C19.5226 1.54216 19.3948 1.48732 19.26 1.45999C16.7909 0.771306 14.1661 0.891385 11.7702 1.80264C9.37423 2.71389 7.33306 4.36843 5.94565 6.52389C4.55824 8.67935 3.89752 11.2224 4.06026 13.7806C4.223 16.3389 5.20066 18.7777 6.85002 20.74L1.29002 26.29C1.14899 26.4299 1.05281 26.6086 1.01374 26.8033C0.974668 26.9981 0.99448 27.2 1.07065 27.3835C1.14681 27.5669 1.27588 27.7235 1.4414 27.8333C1.60692 27.9431 1.80139 28.0011 2.00002 28H5.28002L6.05002 30.32C6.10359 30.4824 6.1979 30.6283 6.32396 30.7439C6.45001 30.8594 6.60359 30.9407 6.77002 30.98L7.00002 31C7.13162 31.0008 7.26209 30.9755 7.38392 30.9258C7.50576 30.876 7.61658 30.8027 7.71002 30.71L13.65 24.77C15.2011 25.0822 16.7989 25.0822 18.35 24.77L24.29 30.71C24.3835 30.8027 24.4943 30.876 24.6161 30.9258C24.7379 30.9755 24.8684 31.0008 25 31H25.23C25.3964 30.9607 25.55 30.8794 25.6761 30.7639C25.8021 30.6483 25.8964 30.5024 25.95 30.34L26.72 28H30C30.1986 28.0011 30.3931 27.9431 30.5586 27.8333C30.7241 27.7235 30.8532 27.5669 30.9294 27.3835C31.0056 27.2 31.0254 26.9981 30.9863 26.8033C30.9472 26.6086 30.851 26.4299 30.71 26.29ZM11.39 24.2L7.39002 28.2L6.90002 26.74C6.84614 26.5381 6.73035 26.3581 6.56893 26.2254C6.4075 26.0926 6.20855 26.0138 6.00002 26H4.41002L8.15002 22.26L9.26002 22.92C9.62718 23.1675 10.0078 23.3945 10.4 23.6L11.39 24.2ZM26 26C25.7904 25.9995 25.5859 26.0648 25.4154 26.1868C25.2449 26.3089 25.1171 26.4814 25.05 26.68L24.56 28.14L20.56 24.14L21.56 23.55C21.9523 23.3445 22.3329 23.1175 22.7 22.87L23.81 22.21L27.59 26H26Z" fill="#F18723"/>
</svg>
