<svg width="32" height="32" viewBox="0 0 32 32" fill="none" xmlns="http://www.w3.org/2000/svg">
<path fill-rule="evenodd" clip-rule="evenodd" d="M16 0L20.4445 4.032L26.4427 3.80088L27.2551 9.74933L32 13.4258L28.8 18.5031L30.0711 24.3715L24.3556 26.2027L21.5573 31.5129L16 29.2427L10.4427 31.5129L7.64445 26.2027L1.92888 24.3715L3.2 18.5031L0 13.4258L4.74488 9.74933L5.55733 3.80088L11.5556 4.032L16 0ZM16 2.4L12.7485 5.34933L12.2116 5.83645L11.4862 5.80978L7.09867 5.64088L6.50488 9.98933L6.40712 10.7093L5.83288 11.152L2.36445 13.8418L4.704 17.5573L5.09155 18.1689L4.93688 18.88L4.00888 23.1698L8.18845 24.5102L8.88 24.7324L9.21955 25.3742L11.264 29.2569L15.328 27.5982L16 27.3227L16.672 27.5982L20.736 29.2569L22.7822 25.3742L23.12 24.7324L23.8116 24.5102L27.9911 23.1698L27.0631 18.88L26.9085 18.1689L27.296 17.5573L29.6373 13.8418L26.1671 11.152L25.5929 10.7093L25.4951 9.98933L24.8996 5.64088L20.5156 5.80978L19.7885 5.83645L19.2516 5.34933L16 2.4ZM21.6843 12.6247L22.7598 14.0416L13.3998 21.1456L9.14915 16.8949L10.406 15.638L13.5598 18.7918L21.6843 12.6247Z" fill="#F18723"/>
</svg>
